<svg width="90" height="93" viewBox="0 0 90 93" fill="none" xmlns="http://www.w3.org/2000/svg">
<g clip-path="url(#clip0_466_48)">
<path d="M72.0738 7.7782H16.7847C10.4997 7.7782 5.40466 12.911 5.40466 19.2426V74.9411C5.40466 81.2727 10.4997 86.4055 16.7847 86.4055H72.0738C78.3589 86.4055 83.4539 81.2727 83.4539 74.9411V19.2426C83.4539 12.911 78.3589 7.7782 72.0738 7.7782Z" fill="url(#paint0_linear_466_48)"/>
<path d="M83.4539 19.2426C83.4539 12.9186 78.3625 7.7782 72.0738 7.7782H16.7847C13.6404 7.7782 10.7982 9.06329 8.73924 11.1375L80.1193 83.0462C82.1783 80.972 83.4539 78.1087 83.4539 74.9411V19.2426Z" fill="url(#paint1_linear_466_48)"/>
<path d="M24.282 32.6346H27.6613V61.5604H24.282V47.5484H19.6829V61.5604H16.3036V32.6346H19.6829V44.764H24.282V32.6346Z" fill="url(#paint2_linear_466_48)"/>
<path d="M30.4588 32.6346H39.9366V35.464H36.9824V61.5604H33.6255V35.464H30.4588V32.6346Z" fill="url(#paint3_linear_466_48)"/>
<path d="M54.9645 32.6346H59.1943V61.5604H56.1954V49.9608L56.4752 39.1502L52.5811 61.5153H49.5263L45.4644 39.1502L45.7441 49.9608V61.5604H42.7564V32.6346H46.9638L51.0705 56.4088L54.9645 32.6346Z" fill="url(#paint4_linear_466_48)"/>
<path d="M63.8828 32.6346H67.2622V58.7422H72.5662V61.5491H63.8828V32.6233V32.6346Z" fill="url(#paint5_linear_466_48)"/>
<path d="M13.2488 2.75055H75.6098C82.693 2.75055 88.4446 8.53346 88.4446 15.6804V78.5033C88.4446 85.6389 82.7042 91.4331 75.6098 91.4331H13.2488C6.16559 91.4331 0.414001 85.6502 0.414001 78.5033V63.8262" stroke="url(#paint6_linear_466_48)" stroke-width="0.75" stroke-miterlimit="10"/>
<path d="M15.9903 2.75055C15.9903 4.27236 14.7706 5.50109 13.26 5.50109C11.7493 5.50109 10.5296 4.27236 10.5296 2.75055C10.5296 1.22873 11.7493 0 13.26 0C14.7706 0 15.9903 1.22873 15.9903 2.75055Z" fill="url(#paint7_linear_466_48)"/>
<path d="M32.0141 2.75056C32.0141 3.61856 31.3204 4.31747 30.4588 4.31747C29.5971 4.31747 28.9034 3.61856 28.9034 2.75056C28.9034 1.88256 29.5971 1.18365 30.4588 1.18365C31.3204 1.18365 32.0141 1.88256 32.0141 2.75056Z" fill="url(#paint8_linear_466_48)"/>
<path d="M90 34.7764C90 35.6444 89.3062 36.3433 88.4446 36.3433C87.583 36.3433 86.8892 35.6444 86.8892 34.7764C86.8892 33.9084 87.583 33.2095 88.4446 33.2095C89.3062 33.2095 90 33.9084 90 34.7764Z" fill="url(#paint9_linear_466_48)"/>
<path d="M54.5393 91.4331C54.5393 92.3011 53.8456 93 52.9839 93C52.1223 93 51.4285 92.3011 51.4285 91.4331C51.4285 90.5651 52.1223 89.8662 52.9839 89.8662C53.8456 89.8662 54.5393 90.5651 54.5393 91.4331Z" fill="url(#paint10_linear_466_48)"/>
</g>
<defs>
<linearGradient id="paint0_linear_466_48" x1="8.73924" y1="83.0462" x2="79.7329" y2="12.5744" gradientUnits="userSpaceOnUse">
<stop stop-color="#3E25AA"/>
<stop offset="1" stop-color="#8B70FF"/>
</linearGradient>
<linearGradient id="paint1_linear_466_48" x1="44.4349" y1="47.0975" x2="80.3827" y2="11.4027" gradientUnits="userSpaceOnUse">
<stop stop-color="#391FAA"/>
<stop offset="1" stop-color="#8C74F8"/>
</linearGradient>
<linearGradient id="paint2_linear_466_48" x1="21.9768" y1="61.5491" x2="21.9768" y2="32.6346" gradientUnits="userSpaceOnUse">
<stop stop-color="#D9D9D9"/>
<stop offset="1" stop-color="white"/>
</linearGradient>
<linearGradient id="paint3_linear_466_48" x1="35.2033" y1="3.91844e-05" x2="35.2033" y2="3.91844e-05" gradientUnits="userSpaceOnUse">
<stop stop-color="#D9D9D9"/>
<stop offset="1" stop-color="white"/>
</linearGradient>
<linearGradient id="paint4_linear_466_48" x1="50.9586" y1="3.91844e-05" x2="50.9586" y2="3.91844e-05" gradientUnits="userSpaceOnUse">
<stop stop-color="#D9D9D9"/>
<stop offset="1" stop-color="white"/>
</linearGradient>
<linearGradient id="paint5_linear_466_48" x1="68.2245" y1="2.20829e-05" x2="68.2245" y2="2.20829e-05" gradientUnits="userSpaceOnUse">
<stop stop-color="#D9D9D9"/>
<stop offset="1" stop-color="white"/>
</linearGradient>
<linearGradient id="paint6_linear_466_48" x1="-2.31315e-05" y1="47.0975" x2="88.8586" y2="47.0975" gradientUnits="userSpaceOnUse">
<stop stop-color="#3B1FB4"/>
<stop offset="1" stop-color="#8469F9"/>
</linearGradient>
<linearGradient id="paint7_linear_466_48" x1="11.3129" y1="4.70073" x2="15.2131" y2="0.840415" gradientUnits="userSpaceOnUse">
<stop stop-color="#3D23AD"/>
<stop offset="1" stop-color="#876DF4"/>
</linearGradient>
<linearGradient id="paint8_linear_466_48" x1="29.3622" y1="3.86656" x2="31.5716" y2="1.66214" gradientUnits="userSpaceOnUse">
<stop stop-color="#4923EC"/>
<stop offset="1" stop-color="#AB98FF"/>
</linearGradient>
<linearGradient id="paint9_linear_466_48" x1="87.348" y1="35.8924" x2="89.5575" y2="33.688" gradientUnits="userSpaceOnUse">
<stop stop-color="#4923EC"/>
<stop offset="1" stop-color="#AB98FF"/>
</linearGradient>
<linearGradient id="paint10_linear_466_48" x1="51.8873" y1="92.5378" x2="54.1079" y2="90.3448" gradientUnits="userSpaceOnUse">
<stop stop-color="#381CAF"/>
<stop offset="1" stop-color="#866AFC"/>
</linearGradient>
<clipPath id="clip0_466_48">
<rect width="90" height="93" fill="white"/>
</clipPath>
</defs>
</svg>
