<svg width="36" height="36" viewBox="0 0 36 36" fill="none" xmlns="http://www.w3.org/2000/svg">
<path d="M30.7195 5.27344C27.3234 1.87734 22.8023 0 17.993 0C15.6094 0 13.2891 0.457031 11.1023 1.36406C9.59766 1.98984 8.17734 2.81953 6.89062 3.825C5.13984 5.19609 3.67031 6.8625 2.53125 8.775C0.878906 11.5594 0 14.7516 0 18C0 22.8094 1.87031 27.3305 5.27344 30.7266C8.66953 34.1227 13.1906 36 18 36C22.8094 36 27.3305 34.1297 30.7266 30.7266C34.1227 27.3305 36 22.8094 36 18C36 13.1906 34.1227 8.67656 30.7195 5.27344ZM17.993 33.1875C9.61875 33.1875 2.80547 26.3742 2.80547 18C2.80547 15.2508 3.54375 12.5648 4.94297 10.2234C5.90625 8.61328 7.14375 7.20703 8.62734 6.04688C9.71719 5.19609 10.9055 4.49297 12.1781 3.97266C14.0203 3.20625 15.975 2.81953 17.9859 2.81953C26.3602 2.81953 33.1734 9.63281 33.1734 18.007C33.1734 26.3813 26.3672 33.1875 17.993 33.1875Z" fill="#0ABAF0"/>
<path d="M17.9719 8.64136C12.839 8.64136 8.6203 12.846 8.6203 18.014C8.6203 20.5171 9.59764 22.8726 11.3695 24.6445C13.1414 26.4164 15.4969 27.4007 18 27.4007C20.5031 27.4007 22.8515 26.4093 24.6234 24.6445C26.3953 22.8726 27.3656 20.5101 27.3656 18.007C27.3656 15.5039 26.3812 13.1554 24.6094 11.3835C22.8375 9.61167 20.5031 8.64136 17.9719 8.64136ZM22.6265 22.6335C21.389 23.871 19.7437 24.5531 17.993 24.5531C16.2422 24.5531 14.5969 23.871 13.3594 22.6335C12.1219 21.396 11.4398 19.7507 11.4398 18C11.4398 14.3859 14.3789 11.4468 17.993 11.4468C19.7437 11.4468 21.389 12.1289 22.6265 13.3664C23.864 14.6039 24.5461 16.2492 24.5461 18C24.5461 19.7507 23.864 21.396 22.6265 22.6335Z" fill="#0ABAF0"/>
<path d="M17.5851 15.4898C16.0734 15.7499 15.0539 17.1913 15.314 18.703C15.5742 20.2148 17.0086 21.2343 18.5203 20.9741C20.032 20.714 21.0515 19.2726 20.7914 17.7608C20.5383 16.2491 19.1039 15.2296 17.5851 15.4898Z" fill="#0ABAF0"/>
</svg>
