<svg width="32" height="31" viewBox="0 0 32 31" fill="none" xmlns="http://www.w3.org/2000/svg">
<path d="M4 31.2H9C10.1139 31.2 11.1822 30.7575 11.9698 29.9698C12.7575 29.1822 13.2 28.1139 13.2 27V15C13.2 13.8861 12.7575 12.8178 11.9698 12.0302C11.1822 11.2425 10.1139 10.8 9 10.8H4C2.88609 10.8 1.8178 11.2425 1.03015 12.0302C0.242499 12.8178 -0.2 13.8861 -0.2 15V27C-0.2 28.1139 0.242499 29.1822 1.03015 29.9698C1.8178 30.7575 2.88609 31.2 4 31.2ZM2.72721 13.7272C3.06477 13.3896 3.52261 13.2 4 13.2H9C9.47739 13.2 9.93523 13.3896 10.2728 13.7272C10.6104 14.0648 10.8 14.5226 10.8 15V27C10.8 27.4774 10.6104 27.9352 10.2728 28.2728C9.93523 28.6104 9.47739 28.8 9 28.8H4C3.52261 28.8 3.06477 28.6104 2.72721 28.2728C2.38964 27.9352 2.2 27.4774 2.2 27V15C2.2 14.5226 2.38964 14.0648 2.72721 13.7272Z" fill="#0ABAF0" stroke="#0ABAF0" stroke-width="0.4"/>
<path d="M7.60992 26.5588C7.57941 26.4846 7.54022 26.4143 7.49316 26.3493C7.40537 26.2227 7.29543 26.113 7.16865 26.0254L7.16712 26.0244C7.10382 25.9815 7.03697 25.9442 6.9673 25.9127L6.96734 25.9126L6.96139 25.9102C6.88747 25.8796 6.81044 25.8572 6.73167 25.8434C6.57869 25.8133 6.42131 25.8133 6.26832 25.8434C6.18956 25.8572 6.11253 25.8796 6.03861 25.9102L6.03857 25.9101L6.0327 25.9127C5.96303 25.9442 5.89618 25.9815 5.83288 26.0244L5.83135 26.0254C5.70388 26.1135 5.59345 26.2239 5.50542 26.3513L5.50438 26.3529C5.46153 26.4162 5.42417 26.483 5.39272 26.5527L5.39262 26.5527L5.39016 26.5586C5.35971 26.6323 5.33736 26.7091 5.32351 26.7876C5.29215 26.9409 5.29215 27.0991 5.32351 27.2524C5.33736 27.3309 5.35971 27.4077 5.39016 27.4814L5.39007 27.4814L5.39272 27.4873C5.42417 27.557 5.46153 27.6238 5.50437 27.6871L5.50543 27.6886C5.59345 27.8161 5.70388 27.9265 5.83135 28.0146L5.83263 28.0154C5.89604 28.0585 5.96307 28.096 6.03298 28.1274L6.03295 28.1275L6.03861 28.1298C6.11332 28.1607 6.1912 28.1833 6.27084 28.1971L6.27078 28.1974L6.28245 28.1987C6.35472 28.2069 6.42762 28.2077 6.5 28.201C6.57239 28.2077 6.64528 28.2069 6.71755 28.1987L6.71759 28.1991L6.72916 28.1971C6.8088 28.1833 6.88668 28.1607 6.96139 28.1298L6.96142 28.1299L6.96694 28.1274C7.03692 28.096 7.104 28.0585 7.16744 28.0154L7.16865 28.0146C7.29543 27.927 7.40537 27.8173 7.49316 27.6907C7.54026 27.6257 7.57948 27.5553 7.61 27.481L7.425 27.405M7.60992 26.5588C7.64033 26.6324 7.66265 26.7091 7.67649 26.7876C7.70785 26.9409 7.70785 27.0991 7.67649 27.2524C7.66264 27.3309 7.64029 27.4077 7.60984 27.4814L7.425 27.405M7.60992 26.5588C7.60989 26.5587 7.60986 26.5587 7.60984 26.5586L7.425 26.635L7.61 26.559C7.60997 26.5589 7.60994 26.5589 7.60992 26.5588ZM7.425 27.405C7.40024 27.4653 7.36835 27.5223 7.33 27.575L7.48 26.825C7.50668 26.9536 7.50668 27.0864 7.48 27.215C7.4687 27.2802 7.45026 27.3439 7.425 27.405ZM11.8 25V25.2H12H28C29.1139 25.2 30.1822 24.7575 30.9698 23.9698C31.7575 23.1822 32.2 22.1139 32.2 21V5C32.2 3.88609 31.7575 2.8178 30.9698 2.03015C30.1822 1.2425 29.1139 0.8 28 0.8H8C6.88609 0.8 5.8178 1.2425 5.03015 2.03015C4.2425 2.8178 3.8 3.88609 3.8 5V12V12.2H4H6H6.2V12V5C6.2 4.52261 6.38964 4.06477 6.72721 3.72721C7.06477 3.38964 7.52261 3.2 8 3.2H28C28.4774 3.2 28.9352 3.38964 29.2728 3.72721C29.6104 4.06477 29.8 4.52261 29.8 5V21C29.8 21.4774 29.6104 21.9352 29.2728 22.2728C28.9352 22.6104 28.4774 22.8 28 22.8H12H11.8V23V25Z" fill="#0ABAF0" stroke="#0ABAF0" stroke-width="0.4"/>
<path d="M16.8028 20.7717L16.8025 20.7717L16.8013 20.7822C16.7926 20.8584 16.7921 20.9352 16.8001 21.0114C16.803 21.3256 16.9291 21.6262 17.1515 21.8486C17.3765 22.0736 17.6817 22.2 18 22.2C18.3183 22.2 18.6235 22.0736 18.8485 21.8486C19.0732 21.6239 19.1996 21.3193 19.2 21.0016C19.2023 20.8408 19.1723 20.6811 19.1116 20.5321C19.0514 20.3842 18.9623 20.2498 18.8496 20.1367C18.7949 20.0772 18.7325 20.0253 18.6641 19.9824C18.599 19.9385 18.5298 19.901 18.4574 19.8706L18.4575 19.8706L18.4536 19.8691C18.3828 19.841 18.3096 19.8193 18.235 19.8041L18.2344 19.804C18.0345 19.7638 17.8277 19.7753 17.6335 19.8372C17.4403 19.8988 17.2658 20.0085 17.1264 20.1558C17.0728 20.2097 17.0252 20.2692 16.9841 20.3332C16.8915 20.4638 16.8295 20.6137 16.8028 20.7717ZM13 29.2H23C23.3183 29.2 23.6235 29.0736 23.8485 28.8486C24.0736 28.6235 24.2 28.3183 24.2 28C24.2 27.6818 24.0736 27.3766 23.8485 27.1515C23.6235 26.9265 23.3183 26.8 23 26.8H13C12.6817 26.8 12.3765 26.9265 12.1515 27.1515C11.9264 27.3766 11.8 27.6818 11.8 28C11.8 28.3183 11.9264 28.6235 12.1515 28.8486C12.3765 29.0736 12.6817 29.2 13 29.2Z" fill="#0ABAF0" stroke="#0ABAF0" stroke-width="0.4"/>
<path d="M20.1515 28.8485C20.3765 29.0736 20.6817 29.2 21 29.2C21.3183 29.2 21.6235 29.0736 21.8485 28.8485C22.0736 28.6235 22.2 28.3183 22.2 28V24C22.2 23.6817 22.0736 23.3765 21.8485 23.1515C21.6235 22.9264 21.3183 22.8 21 22.8C20.6817 22.8 20.3765 22.9264 20.1515 23.1515C19.9264 23.3765 19.8 23.6817 19.8 24V28C19.8 28.3183 19.9264 28.6235 20.1515 28.8485ZM14.1515 28.8485C14.3765 29.0736 14.6817 29.2 15 29.2C15.3183 29.2 15.6235 29.0736 15.8485 28.8485C16.0736 28.6235 16.2 28.3183 16.2 28V24C16.2 23.6817 16.0736 23.3765 15.8485 23.1515C15.6235 22.9264 15.3183 22.8 15 22.8C14.6817 22.8 14.3765 22.9264 14.1515 23.1515C13.9264 23.3765 13.8 23.6817 13.8 24V28C13.8 28.3183 13.9264 28.6235 14.1515 28.8485Z" fill="#0ABAF0" stroke="#0ABAF0" stroke-width="0.4"/>
</svg>
