<svg width="34" height="34" viewBox="0 0 34 34" fill="none" xmlns="http://www.w3.org/2000/svg">
<path d="M16.9111 0.000899682C12.8191 0.00217459 8.86618 1.51686 5.7849 4.2643C2.70363 7.01174 0.702845 10.8057 0.153288 14.9431C-0.39627 19.0805 0.542656 23.281 2.79609 26.7661C5.04952 30.2512 8.46468 32.7848 12.4088 33.8973C12.578 33.9623 12.7586 33.9906 12.9392 33.9803C13.1197 33.9701 13.2961 33.9216 13.4573 33.8379C13.6184 33.7543 13.7607 33.6372 13.875 33.4943C13.9894 33.3514 14.0733 33.1858 14.1214 33.008C14.1695 32.8301 14.1807 32.644 14.1544 32.4615C14.1281 32.279 14.0648 32.1041 13.9686 31.9479C13.8723 31.7917 13.7453 31.6578 13.5954 31.5545C13.4456 31.4512 13.2764 31.3809 13.0984 31.3481C9.82342 30.4331 6.97387 28.3599 5.05879 25.4989C3.14371 22.6378 2.28783 19.1753 2.64405 15.7298C3.00026 12.2842 4.54536 9.08014 7.00336 6.68979C9.46135 4.29943 12.6721 2.87852 16.0622 2.68087C19.4523 2.48321 22.8008 3.52168 25.5096 5.61078C28.2185 7.69988 30.1113 10.7035 30.8498 14.0852C31.5884 17.4669 31.1247 21.0064 29.5415 24.0714C27.9583 27.1364 25.3587 29.5273 22.2072 30.817C22.2892 29.0724 22.1581 27.324 21.8168 25.6124C23.6664 25.1938 25.3156 24.1315 26.4814 22.6076C27.6472 21.0838 28.2569 19.1935 28.2059 17.2611C28.2999 15.4435 27.8211 13.6429 26.8396 12.1229C27.0215 10.6148 26.843 9.08416 26.3191 7.66179C26.2215 7.3652 26.0244 7.11332 25.7625 6.95057C25.5006 6.78782 25.1908 6.72465 24.8877 6.77222C23.3183 6.99092 21.8185 7.57217 20.5025 8.47169C19.3302 8.15366 18.124 7.98421 16.9111 7.96716C15.5926 8.00261 14.2826 8.19419 13.0074 8.53807C11.7425 7.55077 10.2014 7.00183 8.60914 6.97138C8.32858 6.95447 8.05021 7.0307 7.81565 7.18866C7.58109 7.34662 7.40295 7.57781 7.30789 7.84766C6.83066 9.20298 6.66591 10.6523 6.82643 12.0831C5.89275 13.6392 5.41838 15.437 5.46012 17.2611C5.50834 19.1838 6.16962 21.038 7.34372 22.5427C8.51782 24.0473 10.1407 25.1204 11.9664 25.5991C11.8828 25.9449 11.8176 26.2951 11.7712 26.648C10.4699 26.7277 9.7152 25.9178 8.75227 24.683C8.18544 23.7111 7.28625 22.9876 6.22785 22.6516C5.89918 22.5918 5.56055 22.6632 5.28202 22.8511C5.00349 23.0389 4.80636 23.3287 4.73142 23.6607C4.65935 23.9929 4.71502 24.3406 4.88694 24.6322C5.05885 24.9237 5.3339 25.1368 5.6553 25.2274C5.8635 25.2274 6.37099 25.9178 6.65727 26.3028C7.17577 27.164 7.88991 27.885 8.73927 28.405C9.58864 28.925 10.5483 29.2286 11.5369 29.2902C12.1089 29.2894 12.678 29.209 13.2286 29.0512C13.3634 29.0104 13.4908 28.9477 13.6059 28.8653C13.7009 28.7887 13.7805 28.694 13.8402 28.5865C13.8815 28.5533 13.9168 28.5128 13.9443 28.467C13.978 28.3948 14.0042 28.3191 14.0223 28.2413C14.0543 28.1547 14.0804 28.066 14.1004 27.9757C14.0961 27.0935 14.3015 26.2233 14.699 25.4398C14.8607 25.2469 14.9648 25.0108 14.999 24.7594C15.0332 24.508 14.9961 24.2519 14.892 24.0213C14.7879 23.7908 14.6213 23.5956 14.4118 23.4587C14.2023 23.3218 13.9588 23.2491 13.71 23.2491C12.2019 23.1622 10.7817 22.4968 9.73432 21.3862C8.68692 20.2757 8.08977 18.8021 8.06261 17.2611C7.99817 15.8422 8.39627 14.4416 9.1947 13.278C9.32419 13.1298 9.41947 12.9539 9.47351 12.7632C9.52756 12.5725 9.539 12.3718 9.507 12.176C9.35726 11.3644 9.35726 10.5314 9.507 9.71974C10.3585 9.90373 11.1427 10.3268 11.7712 10.9412C11.9408 11.1073 12.1514 11.2234 12.3805 11.2772C12.6096 11.331 12.8487 11.3204 13.0724 11.2466C14.3229 10.8827 15.6117 10.6732 16.9111 10.6226C18.0806 10.6524 19.2407 10.8445 20.3594 11.1935C20.5774 11.2759 20.8132 11.2972 21.042 11.2552C21.2708 11.2132 21.4845 11.1093 21.6607 10.9545C22.4188 10.3172 23.3085 9.86323 24.2632 9.6268C24.4583 10.4604 24.4583 11.3291 24.2632 12.1627C24.2122 12.4019 24.2239 12.6504 24.297 12.8835C24.3701 13.1166 24.502 13.3259 24.6796 13.4904C25.4434 14.5831 25.7735 15.9303 25.6034 17.2611C25.6341 18.0415 25.5071 18.82 25.2304 19.5481C24.9537 20.2763 24.5332 20.9387 23.9951 21.494C23.4569 22.0494 22.8125 22.4859 22.102 22.7764C21.3915 23.0669 20.63 23.2052 19.8649 23.1827C19.5991 23.1818 19.3393 23.2641 19.1206 23.4184C18.9019 23.5727 18.7348 23.7916 18.6418 24.0457C18.5473 24.2999 18.5316 24.5775 18.5968 24.8411C18.662 25.1046 18.8048 25.3414 19.0061 25.5195C19.7738 26.1966 19.6567 30.8303 19.6177 32.636C19.6126 32.8421 19.6547 33.0466 19.7405 33.2333C19.8263 33.42 19.9536 33.5837 20.1122 33.7115C20.3428 33.8941 20.627 33.9923 20.9189 33.9903C21.027 34.0032 21.1362 34.0032 21.2443 33.9903C25.2554 32.9518 28.7543 30.4491 31.0789 26.9558C33.4035 23.4625 34.3924 19.2209 33.8586 15.0338C33.3248 10.8467 31.3053 7.00442 28.1822 4.23416C25.0591 1.4639 21.0491 -0.0421906 16.9111 0.000899682Z" fill="#0ABAF0"/>
</svg>
