<svg width="26" height="22" viewBox="0 0 26 22" fill="none" xmlns="http://www.w3.org/2000/svg">
<g id="Group 8">
<g id="Layer_2">
<path id="Vector" d="M13.177 0.301056C6.17578 0.301056 0.480255 5.99658 0.480255 12.9978C0.480255 16.1305 1.63274 19.1372 3.72581 21.4647C4.19508 21.986 4.99739 22.0301 5.51872 21.5602C6.04005 21.0915 6.08284 20.2886 5.6142 19.7673C4.22657 18.2242 3.36573 16.3055 3.109 14.2675H4.28929C4.99041 14.2675 5.55897 13.699 5.55897 12.9978C5.55897 12.2967 4.99041 11.7282 4.28929 11.7282H3.10786C3.34021 9.87761 4.07116 8.18373 5.16334 6.77946L5.93099 7.54711C6.17895 7.79508 6.50374 7.91913 6.82865 7.91913C7.15356 7.91913 7.47834 7.79508 7.72631 7.54711C8.22225 7.05118 8.22225 6.24772 7.72631 5.75166L6.95866 4.98414C8.36293 3.89196 10.0568 3.16088 11.9074 2.92866V4.11009C11.9074 4.81121 12.4759 5.37977 13.177 5.37977C13.8782 5.37977 14.4467 4.81121 14.4467 4.11009V2.92866C16.2973 3.16101 17.9912 3.89196 19.3954 4.98414L18.6278 5.75179C18.1318 6.24772 18.1318 7.05118 18.6278 7.54724C18.8757 7.79508 19.2005 7.91913 19.5254 7.91913C19.8503 7.91913 20.1751 7.79508 20.4231 7.54711L21.1907 6.77946C22.2829 8.18373 23.0139 9.87761 23.2462 11.7282H22.0648C21.3637 11.7282 20.7951 12.2967 20.7951 12.9978C20.7951 13.699 21.3637 14.2675 22.0648 14.2675H23.2451C22.9884 16.3055 22.1275 18.2242 20.7399 19.7671C20.2712 20.2885 20.314 21.0914 20.8354 21.56C21.0779 21.7783 21.3809 21.8856 21.6835 21.8856C22.0313 21.8856 22.3773 21.7436 22.6283 21.4647C24.7213 19.1372 25.8738 16.1305 25.8738 12.9978C25.8738 5.99658 20.1783 0.301056 13.177 0.301056Z" fill="white"/>
<path id="Vector_2" d="M17.8837 9.56086C17.3878 9.06492 16.5843 9.06492 16.0883 9.56086L13.8265 11.8227C13.6181 11.7672 13.403 11.7282 13.177 11.7282C11.7745 11.7282 10.6377 12.8651 10.6377 14.2676C10.6377 15.67 11.7745 16.8069 13.177 16.8069C14.5795 16.8069 15.7164 15.67 15.7164 14.2676C15.7164 14.0416 15.6774 13.8265 15.622 13.618L17.8838 11.3562C18.3798 10.8602 18.3798 10.0568 17.8837 9.56086Z" fill="white"/>
</g>
</g>
</svg>
