<svg width="29" height="23" viewBox="0 0 29 23" fill="none" xmlns="http://www.w3.org/2000/svg">
<path d="M22.04 22.7987H6.95998C6.73059 22.7987 6.50637 22.7306 6.31565 22.6031C6.12494 22.4757 5.9763 22.2945 5.88852 22.0826C5.80074 21.8707 5.77777 21.6375 5.82251 21.4125C5.86725 21.1875 5.97769 20.9808 6.13987 20.8186L13.6799 13.2786C13.7875 13.1708 13.9153 13.0852 14.0561 13.0269C14.1968 12.9685 14.3476 12.9385 14.5 12.9385C14.6523 12.9385 14.8032 12.9685 14.9439 13.0269C15.0846 13.0852 15.2125 13.1708 15.3201 13.2786L22.8601 20.8186C23.0223 20.9808 23.1327 21.1875 23.1775 21.4125C23.2222 21.6375 23.1992 21.8707 23.1115 22.0826C23.0237 22.2945 22.875 22.4757 22.6843 22.6031C22.4936 22.7306 22.2694 22.7987 22.04 22.7987ZM9.76022 20.4787H19.2397L14.5 15.7389L9.76022 20.4787Z" fill="#0ABAF0"/>
<path d="M0 2.32V16.24C0 16.8553 0.244428 17.4454 0.679512 17.8805C1.1146 18.3156 1.7047 18.56 2.32 18.56H6.15728L8.47728 16.24H2.32V2.32H26.68V16.24H20.5239L22.8439 18.56H26.68C27.2953 18.56 27.8854 18.3156 28.3205 17.8805C28.7556 17.4454 29 16.8553 29 16.24V2.32C29 1.7047 28.7556 1.1146 28.3205 0.679512C27.8854 0.244428 27.2953 0 26.68 0H2.32C1.7047 0 1.1146 0.244428 0.679512 0.679512C0.244428 1.1146 0 1.7047 0 2.32Z" fill="#0ABAF0"/>
</svg>
