<svg width="34" height="24" viewBox="0 0 34 24" fill="none" xmlns="http://www.w3.org/2000/svg">
<path d="M27.9358 7.21044C26.8956 4.8023 25.101 2.80469 22.8272 1.52388C20.5533 0.24307 17.9257 -0.250233 15.3471 0.119605C12.7686 0.489443 10.3815 1.70201 8.55184 3.57138C6.72218 5.44076 5.55095 7.86376 5.21773 10.4689C3.59649 10.8604 2.1743 11.8389 1.22122 13.2183C0.268143 14.5977 -0.149437 16.2822 0.0477808 17.9517C0.244999 19.6212 1.04328 21.1595 2.29102 22.2745C3.53877 23.3895 5.14908 24.0035 6.81616 24H25.5211C27.5606 23.9943 29.5301 23.2495 31.0704 21.9014C32.6107 20.5532 33.6192 18.6916 33.9119 16.656C34.2047 14.6205 33.7622 12.5466 32.6651 10.8127C31.5681 9.07873 29.8896 7.80026 27.9358 7.21044ZM25.5211 20.57H6.81616C5.91418 20.57 5.04915 20.2087 4.41135 19.5654C3.77356 18.9222 3.41525 18.0498 3.41525 17.1401C3.41525 16.2304 3.77356 15.358 4.41135 14.7148C5.04915 14.0715 5.91418 13.7102 6.81616 13.7102C7.26715 13.7102 7.69966 13.5295 8.01856 13.2079C8.33746 12.8863 8.51661 12.45 8.51661 11.9952C8.52095 9.96688 9.23809 8.00576 10.5406 6.46029C11.8431 4.91481 13.6467 3.88504 15.6309 3.55391C17.6151 3.22279 19.6514 3.61177 21.3781 4.65173C23.1048 5.69169 24.4101 7.3153 25.062 9.23411C25.1618 9.52561 25.3376 9.7846 25.571 9.98379C25.8045 10.183 26.0868 10.315 26.3884 10.366C27.6348 10.5979 28.751 11.2895 29.5194 12.3061C30.2879 13.3226 30.6537 14.5912 30.5454 15.8649C30.4372 17.1385 29.8627 18.3258 28.9339 19.1956C28.0051 20.0655 26.7885 20.5554 25.5211 20.57Z" fill="#01A5D8"/>
</svg>
