<svg width="21" height="25" viewBox="0 0 21 25" fill="none" xmlns="http://www.w3.org/2000/svg">
<path id="Vector" d="M20.1178 8.54038C20.0278 8.3398 19.8817 8.16767 19.6961 8.04349C19.5104 7.91931 19.2926 7.84804 19.0673 7.83776H13.5375L15.0709 2.28707C15.1197 2.11338 15.1266 1.9311 15.091 1.75441C15.0554 1.57771 14.9783 1.41136 14.8656 1.26827C14.7531 1.12656 14.6087 1.01172 14.4433 0.93255C14.278 0.853384 14.0962 0.811999 13.9118 0.811569H5.46C5.18741 0.802513 4.91969 0.883236 4.70045 1.04059C4.48121 1.19794 4.32335 1.42266 4.2526 1.67813L1.01678 13.3884C0.967942 13.5621 0.961055 13.7444 0.996654 13.9211C1.03225 14.0978 1.10938 14.2642 1.22204 14.4072C1.33575 14.5505 1.48214 14.6663 1.64972 14.7456C1.8173 14.8248 2.00152 14.8653 2.18795 14.8639H6.86058L4.67519 22.7567C4.60359 23.0112 4.62269 23.2817 4.7294 23.5244C4.83612 23.767 5.02419 23.9676 5.26314 24.0937C5.50209 24.2197 5.77793 24.2638 6.04595 24.2188C6.31397 24.1738 6.55847 24.0424 6.73984 23.8458L19.9005 9.79338C20.0572 9.62696 20.161 9.42021 20.1996 9.19795C20.2381 8.9757 20.2097 8.74737 20.1178 8.54038ZM8.29738 18.7049L9.58929 14.0208C9.63813 13.8471 9.64501 13.6648 9.60942 13.4881C9.57382 13.3115 9.49669 13.1451 9.38403 13.002C9.27155 12.8603 9.1271 12.7455 8.96176 12.6663C8.79642 12.5871 8.61458 12.5457 8.43019 12.5453H3.79379L6.37762 3.15363H12.3301L10.7967 8.70432C10.7475 8.88121 10.7417 9.06684 10.7799 9.24628C10.8181 9.42572 10.8992 9.59396 11.0166 9.73747C11.1341 9.88099 11.2846 9.99577 11.4561 10.0726C11.6276 10.1494 11.8153 10.1862 12.0041 10.1798H16.3145L8.29738 18.7049Z" fill="white"/>
</svg>
