<svg width="29" height="26" viewBox="0 0 29 26" fill="none" xmlns="http://www.w3.org/2000/svg">
<path d="M4.33341 26H10.1112H18.7779H24.5556C26.9452 26 28.889 24.0562 28.889 21.6667V5.77778C28.889 3.38823 26.9452 1.44444 24.5556 1.44444H21.6667C19.2772 1.44444 17.3334 3.38823 17.3334 5.77778V8.93288C16.8794 8.77096 16.398 8.66667 15.889 8.66667H13.0001C10.6105 8.66667 8.66674 10.6105 8.66674 13V16.1551C8.21275 15.9932 7.73132 15.8889 7.22229 15.8889H4.33341C1.94386 15.8889 7.20943e-05 17.8327 7.20943e-05 20.2222V21.6667C7.20943e-05 24.0562 1.94386 26 4.33341 26ZM20.2223 13V5.77778C20.2223 4.98146 20.8697 4.33333 21.6667 4.33333H24.5556C25.3527 4.33333 26.0001 4.98146 26.0001 5.77778V21.6667C26.0001 22.463 25.3527 23.1111 24.5556 23.1111H20.2223V13ZM11.5556 20.2222V13C11.5556 12.2037 12.203 11.5556 13.0001 11.5556H15.889C16.686 11.5556 17.3334 12.2037 17.3334 13V23.1111H11.5556V20.2222ZM2.88896 20.2222C2.88896 19.4259 3.53636 18.7778 4.33341 18.7778H7.22229C8.01934 18.7778 8.66674 19.4259 8.66674 20.2222V23.1111H4.33341C3.53636 23.1111 2.88896 22.463 2.88896 21.6667V20.2222ZM1.44452 13C1.81415 13 2.18364 12.8589 2.46574 12.5768L10.1112 4.93148V5.77778C10.1112 6.5754 10.7573 7.22222 11.5556 7.22222C12.354 7.22222 13.0001 6.5754 13.0001 5.77778V1.44444C13.0001 1.42596 12.9902 1.41064 12.9895 1.3923C12.9835 1.22316 12.9575 1.05387 12.89 0.891511L12.8878 0.887755C12.8824 0.874611 12.8721 0.864933 12.8663 0.852078C12.8012 0.707778 12.7126 0.581533 12.6083 0.469156C12.5741 0.432178 12.5361 0.403 12.4983 0.369778C12.4063 0.289178 12.3072 0.222156 12.1977 0.167122C12.1516 0.143867 12.1089 0.120178 12.06 0.101833C11.9003 0.0415998 11.7329 0 11.5556 0H7.22229C6.42395 0 5.77785 0.646822 5.77785 1.44444C5.77785 2.24207 6.42395 2.88889 7.22229 2.88889H8.06859L0.42315 10.5343C-0.14105 11.0985 -0.14105 12.0126 0.42315 12.5769C0.705395 12.8589 1.07488 13 1.44452 13Z" fill="#0ABAF0"/>
</svg>
