<svg width="22" height="20" viewBox="0 0 22 20" fill="none" xmlns="http://www.w3.org/2000/svg">
<g id="Layer_2">
<path id="Vector" d="M3.40052 19.8019H7.75088H14.2764H18.6268C20.426 19.8019 21.8895 18.3384 21.8895 16.5392V4.57567C21.8895 2.77647 20.426 1.3129 18.6268 1.3129H16.4516C14.6524 1.3129 13.1888 2.77647 13.1888 4.57567V6.95129C12.847 6.82937 12.4845 6.75085 12.1012 6.75085H9.92606C8.12686 6.75085 6.66329 8.21442 6.66329 10.0136V12.3892C6.32146 12.2673 5.95897 12.1888 5.5757 12.1888H3.40052C1.60132 12.1888 0.13775 13.6524 0.13775 15.4516V16.5392C0.13775 18.3384 1.60132 19.8019 3.40052 19.8019ZM15.364 10.0136V4.57567C15.364 3.97608 15.8515 3.48808 16.4516 3.48808H18.6268C19.2269 3.48808 19.7144 3.97608 19.7144 4.57567V16.5392C19.7144 17.1387 19.2269 17.6267 18.6268 17.6267H15.364V10.0136ZM8.83847 15.4516V10.0136C8.83847 9.41403 9.32593 8.92603 9.92606 8.92603H12.1012C12.7014 8.92603 13.1888 9.41403 13.1888 10.0136V17.6267H8.83847V15.4516ZM2.31293 15.4516C2.31293 14.852 2.80039 14.364 3.40052 14.364H5.5757C6.17583 14.364 6.66329 14.852 6.66329 15.4516V17.6267H3.40052C2.80039 17.6267 2.31293 17.1387 2.31293 16.5392V15.4516ZM1.22534 10.0136C1.50365 10.0136 1.78186 9.90736 1.99427 9.69495L7.75088 3.93845V4.57567C7.75088 5.17624 8.23736 5.66326 8.83847 5.66326C9.43958 5.66326 9.92606 5.17624 9.92606 4.57567V1.3129C9.92606 1.29898 9.91866 1.28745 9.91812 1.27364C9.91355 1.14628 9.89397 1.01882 9.84318 0.896572L9.84155 0.893744C9.83742 0.883847 9.8297 0.87656 9.82535 0.86688C9.7763 0.75823 9.70963 0.663175 9.6311 0.57856C9.60533 0.550718 9.57672 0.528749 9.54823 0.503734C9.47895 0.443047 9.40434 0.392583 9.3219 0.351145C9.28721 0.333635 9.25502 0.315799 9.21826 0.301986C9.09797 0.256634 8.97192 0.225311 8.83847 0.225311H5.5757C4.97459 0.225311 4.48811 0.712334 4.48811 1.3129C4.48811 1.91347 4.97459 2.40049 5.5757 2.40049H6.21292L0.456305 8.1571C0.0314922 8.58192 0.0314922 9.27014 0.456305 9.69506C0.66882 9.90736 0.947025 10.0136 1.22534 10.0136Z" fill="white"/>
</g>
</svg>
