<svg width="88" height="91" viewBox="0 0 88 91" fill="none" xmlns="http://www.w3.org/2000/svg">
<g clip-path="url(#clip0_466_64)">
<path d="M60.7346 88.2976H14.0594C7.13366 88.2976 1.50989 82.639 1.50989 75.6458V14.1739C1.52083 7.19176 7.13366 1.53321 14.0594 1.53321H75.0347C81.9605 1.53321 87.5842 7.19176 87.5842 14.185V27.7192" stroke="url(#paint0_linear_466_64)" stroke-width="0.75" stroke-miterlimit="10"/>
<path d="M60.7346 90.989C62.209 90.989 63.4042 89.784 63.4042 88.2976C63.4042 86.8112 62.209 85.6062 60.7346 85.6062C59.2602 85.6062 58.0649 86.8112 58.0649 88.2976C58.0649 89.784 59.2602 90.989 60.7346 90.989Z" fill="url(#paint1_linear_466_64)"/>
<path d="M43.0317 88.2976C43.0317 87.4483 43.7101 86.7644 44.5526 86.7644C45.395 86.7644 46.0734 87.4483 46.0734 88.2976C46.0734 89.1469 45.395 89.8308 44.5526 89.8308C43.7101 89.8308 43.0317 89.1469 43.0317 88.2976Z" fill="url(#paint2_linear_466_64)"/>
<path d="M1.52083 59.9718C2.36075 59.9718 3.04165 59.2853 3.04165 58.4385C3.04165 57.5918 2.36075 56.9053 1.52083 56.9053C0.680897 56.9053 0 57.5918 0 58.4385C0 59.2853 0.680897 59.9718 1.52083 59.9718Z" fill="url(#paint3_linear_466_64)"/>
<path d="M68.9514 1.53321C68.9514 0.683879 69.6298 0 70.4722 0C71.3147 0 71.9931 0.683879 71.9931 1.53321C71.9931 2.38255 71.3147 3.06642 70.4722 3.06642C69.6298 3.06642 68.9514 2.38255 68.9514 1.53321Z" fill="url(#paint4_linear_466_64)"/>
<path d="M17.0026 6.51891H71.0739C77.2119 6.51891 82.2011 11.5487 82.2011 17.7367V72.2485C82.2011 78.4365 77.2119 83.4663 71.0739 83.4663H17.0026C10.8645 83.4663 5.87537 78.4365 5.87537 72.2485V17.7257C5.87537 11.5377 10.8645 6.50788 17.0026 6.50788V6.51891Z" fill="url(#paint5_linear_466_64)"/>
<path d="M82.1902 17.7257C82.1902 11.5377 77.212 6.50788 71.063 6.50788H17.0026C13.9281 6.50788 11.149 7.76534 9.13586 9.79491L78.9297 80.1572C80.9429 78.1276 82.1902 75.3259 82.1902 72.2264V17.7257Z" fill="url(#paint6_linear_466_64)"/>
<path d="M35.5588 23.8696H40.4933V55.9016C40.4933 63.0602 37.9987 66.6341 33.0095 66.6341C30.3727 66.6341 28.4361 65.8178 27.1997 64.1964C25.9634 62.5749 25.3397 60.1041 25.3397 56.784V51.2578H30.1538V56.4641C30.1538 58.615 30.2523 59.9166 30.4383 60.4019C30.6243 60.8873 30.8213 61.2623 31.0073 61.5601C31.3902 62.1227 32.0248 62.3984 32.9001 62.3984C33.7754 62.3984 34.41 62.1006 34.782 61.4939C35.154 60.8983 35.3728 60.1593 35.4494 59.2879C35.526 58.4165 35.5588 57.3466 35.5588 56.0781V23.8586V23.8696Z" fill="url(#paint7_linear_466_64)"/>
<path d="M46.7735 36.9515C46.489 35.9478 46.3468 34.7344 46.3468 33.3225C46.3468 30.2672 46.9048 27.8405 48.0317 26.0315C49.1477 24.2336 51.2922 23.3291 54.4542 23.3291C58.5243 23.3291 60.9205 25.2925 61.6426 29.2303C61.9599 30.929 62.124 33.0689 62.124 35.6389V38.1318H57.4083V35.297C57.4083 32.6056 57.277 30.7966 57.0035 29.8701C56.73 28.9435 56.4018 28.3258 56.0079 28.017C55.614 27.7192 55.0998 27.5647 54.4542 27.5647C53.2616 27.5647 52.4082 28.0059 51.883 28.8884C51.3579 29.7708 51.0953 31.0724 51.0953 32.8041C51.0953 34.5359 51.336 35.7933 51.8065 36.5985C52.2879 37.4038 52.8677 38.1649 53.568 38.8928C54.2682 39.6208 54.6512 40.029 54.7387 40.1282L57.5943 43.1726C61.0189 46.7905 62.7367 50.8387 62.7367 55.328C62.7367 58.979 62.1787 61.7697 61.0518 63.7C59.9358 65.6303 57.8022 66.5899 54.6621 66.5899C50.8655 66.5899 48.4585 64.9133 47.4409 61.5491C46.8501 59.6629 46.5656 57.1921 46.5656 54.1257V49.7798H51.3469V54.0816C51.3469 57.1701 51.5658 59.321 52.0143 60.5233C52.4629 61.7366 53.2835 62.3322 54.487 62.3322C55.6906 62.3322 56.5221 62.0455 56.9926 61.4829C57.4521 60.9204 57.7147 60.049 57.7913 58.8798C57.8679 57.7106 57.9007 56.3979 57.9007 54.9419C57.9007 52.0079 56.6206 49.2613 54.0603 46.6802L51.325 43.9227C48.8852 41.3967 47.3643 39.0583 46.7735 36.9405V36.9515Z" fill="url(#paint8_linear_466_64)"/>
</g>
<defs>
<linearGradient id="paint0_linear_466_64" x1="1.10506" y1="44.9154" x2="88" y2="44.9154" gradientUnits="userSpaceOnUse">
<stop stop-color="#1794C6"/>
<stop offset="1" stop-color="#82CDFB"/>
</linearGradient>
<linearGradient id="paint1_linear_466_64" x1="62.6274" y1="86.4004" x2="58.8221" y2="90.175" gradientUnits="userSpaceOnUse">
<stop stop-color="#1794C6"/>
<stop offset="1" stop-color="#82CDFB"/>
</linearGradient>
<linearGradient id="paint2_linear_466_64" x1="45.6248" y1="87.2166" x2="43.4628" y2="89.372" gradientUnits="userSpaceOnUse">
<stop stop-color="#1794C6"/>
<stop offset="1" stop-color="#82CDFB"/>
</linearGradient>
<linearGradient id="paint3_linear_466_64" x1="2.59306" y1="57.3686" x2="0.431195" y2="59.513" gradientUnits="userSpaceOnUse">
<stop stop-color="#1794C6"/>
<stop offset="1" stop-color="#82CDFB"/>
</linearGradient>
<linearGradient id="paint4_linear_466_64" x1="71.5445" y1="0.452242" x2="69.3826" y2="2.59665" gradientUnits="userSpaceOnUse">
<stop stop-color="#1794C6"/>
<stop offset="1" stop-color="#82CDFB"/>
</linearGradient>
<linearGradient id="paint5_linear_466_64" x1="9.13584" y1="80.1682" x2="78.6024" y2="11.2629" gradientUnits="userSpaceOnUse">
<stop stop-color="#1794C6"/>
<stop offset="1" stop-color="#82CDFB"/>
</linearGradient>
<linearGradient id="paint6_linear_466_64" x1="44.0383" y1="44.9816" x2="79.2128" y2="10.0802" gradientUnits="userSpaceOnUse">
<stop stop-color="#1794C6"/>
<stop offset="1" stop-color="#82CDFB"/>
</linearGradient>
<linearGradient id="paint7_linear_466_64" x1="32.911" y1="66.6341" x2="32.911" y2="23.8696" gradientUnits="userSpaceOnUse">
<stop stop-color="#D9D9D9"/>
<stop offset="1" stop-color="white"/>
</linearGradient>
<linearGradient id="paint8_linear_466_64" x1="54.5418" y1="66.601" x2="54.5418" y2="23.3401" gradientUnits="userSpaceOnUse">
<stop stop-color="#D9D9D9"/>
<stop offset="1" stop-color="white"/>
</linearGradient>
<clipPath id="clip0_466_64">
<rect width="88" height="91" fill="white"/>
</clipPath>
</defs>
</svg>
