<svg width="135" height="69" viewBox="0 0 135 69" fill="none" xmlns="http://www.w3.org/2000/svg">
<path d="M76.6266 0H63.9567L40.9893 23.0738L24.3578 6.36519C23.2576 5.25992 21.9425 4.50207 20.5484 4.09345C17.5041 3.07279 14.0101 3.78023 11.584 6.21578L2.625 15.2163C0.874401 16.975 0 19.2774 0 21.5815C0 23.8857 0.874401 26.188 2.625 27.9467L17.7711 43.1648L24.107 36.8032L8.96082 21.5815L17.8966 12.6026L34.6553 29.439L20.9928 43.1648H29.8282C32.283 43.1648 34.6374 42.1856 36.3737 40.4413L40.9911 35.8042L41.9838 36.8014C43.7344 38.5583 46.0261 39.4386 48.3196 39.4386C50.6131 39.4386 52.9049 38.5583 54.6554 36.8014L47.327 29.439L76.6266 0ZM35.9562 28.1303L19.1992 11.2957L22.9262 7.54966C22.9692 7.59106 23.0104 7.63247 23.0534 7.67387L39.6849 24.3825L35.9544 28.1303H35.9562ZM51.8781 36.6304C50.8084 37.2533 49.5882 37.5863 48.3178 37.5863C46.4167 37.5863 44.6303 36.8428 43.2846 35.4928L42.292 34.4937L46.0225 30.7477L51.8781 36.6304Z" fill="url(#paint0_linear_431_440)"/>
<path d="M68.1477 49.4707C66.0227 49.4707 64.4047 48.8749 63.2902 47.6886C62.1774 46.5005 61.6202 44.8138 61.6202 42.6285C61.6202 41.5412 61.7904 40.5727 62.1291 39.7177C62.4695 38.8644 62.9336 38.1444 63.5267 37.5576C64.118 36.9707 64.8221 36.5243 65.6392 36.2201C66.4563 35.9177 67.3432 35.7646 68.3 35.7646C68.8537 35.7646 69.3554 35.8061 69.8087 35.8889C70.2621 35.9699 70.6581 36.0653 70.9967 36.1733C71.3372 36.2795 71.6203 36.3911 71.846 36.5045C72.0736 36.6197 72.2366 36.7079 72.3388 36.7709L71.5092 39.1039C71.4984 39.1327 71.468 39.1471 71.4393 39.1327C71.0469 38.9292 70.5954 38.7546 70.0847 38.6088C69.5489 38.4576 68.9433 38.3802 68.2642 38.3802C67.8109 38.3802 67.3683 38.4558 66.9329 38.6088C66.4975 38.76 66.114 39.003 65.7826 39.3397C65.4475 39.6727 65.1805 40.1065 64.9798 40.6375C64.7774 41.1668 64.6788 41.813 64.6788 42.5709C64.6788 43.1775 64.7451 43.7427 64.8759 44.2684C65.0085 44.7922 65.2217 45.244 65.5174 45.6221C65.813 46.0019 66.2001 46.3025 66.6785 46.5221C67.1569 46.7435 67.7356 46.8533 68.4147 46.8533C68.843 46.8533 69.2246 46.8299 69.5651 46.7777C69.9055 46.7273 70.2065 46.6661 70.4699 46.5977C70.7333 46.5275 70.9663 46.4483 71.1687 46.3601C71.3712 46.2701 71.5522 46.1891 71.7152 46.1135L72.5126 48.4428C72.5215 48.4662 72.5126 48.4932 72.4911 48.5058C72.0772 48.7488 71.5056 48.9703 70.7709 49.1665C70.0184 49.3699 69.1422 49.4707 68.1477 49.4707Z" fill="#00B2E9"/>
<path d="M83.7508 49.2042C83.7293 49.2042 83.7096 49.1899 83.7024 49.1683C83.5591 48.7236 83.4067 48.2664 83.2437 47.7984C83.0806 47.3285 82.9176 46.8605 82.7545 46.3961C82.7474 46.3745 82.7277 46.3619 82.7062 46.3619H77.673C77.6515 46.3619 77.6318 46.3763 77.6246 46.3961C77.4633 46.8641 77.3021 47.3321 77.139 47.802C76.9778 48.2718 76.8272 48.7272 76.6875 49.1683C76.6803 49.1899 76.6606 49.2042 76.6391 49.2042H73.6934C73.6575 49.2042 73.6325 49.1682 73.645 49.134C74.1288 47.7462 74.5857 46.4609 75.0211 45.2818C75.4619 44.0811 75.8955 42.9507 76.3166 41.8886C76.7394 40.8265 77.1551 39.8185 77.5655 38.8644C77.9722 37.9212 78.3933 36.9977 78.8305 36.0977C78.8394 36.0796 78.8574 36.0688 78.8771 36.0688H81.6024C81.6221 36.0688 81.64 36.0796 81.649 36.0977C82.0736 36.9977 82.4911 37.9212 82.905 38.8644C83.3225 39.8185 83.7418 40.8247 84.1665 41.8886C84.5893 42.9507 85.023 44.0793 85.4637 45.2818C85.9009 46.4627 86.3596 47.748 86.8434 49.134C86.856 49.1682 86.8309 49.2042 86.7951 49.2042H83.7526H83.7508ZM80.1761 39.0444C80.1116 39.2352 80.0149 39.4963 79.8894 39.8221C79.7622 40.1515 79.6189 40.5313 79.4576 40.9597C79.2964 41.39 79.1154 41.8652 78.9165 42.3818C78.7248 42.8769 78.5295 43.3971 78.3341 43.9389C78.3216 43.9731 78.3467 44.0109 78.3825 44.0109H81.9751C82.0109 44.0109 82.036 43.9749 82.0235 43.9407C81.8318 43.3971 81.6472 42.8769 81.468 42.3782C81.2799 41.8598 81.1007 41.3846 80.9323 40.9543C80.7638 40.5241 80.6151 40.1461 80.4879 39.8167C80.3607 39.4891 80.2568 39.2316 80.1779 39.0462L80.1761 39.0444Z" fill="#00B2E9"/>
<path d="M92.3747 35.916C94.3368 35.916 95.8401 36.267 96.8829 36.9691C97.9275 37.6693 98.4507 38.7602 98.4507 40.2381C98.4507 41.1597 98.2393 41.9104 97.8182 42.4846C97.4061 43.0462 96.8202 43.4891 96.0587 43.8149C96.0282 43.8275 96.0175 43.8635 96.0372 43.8887C96.2898 44.2055 96.5532 44.5655 96.8274 44.967C97.1158 45.3918 97.4025 45.8328 97.6856 46.2954C97.9687 46.7563 98.2429 47.2369 98.5063 47.7355C98.7571 48.209 98.9901 48.6734 99.2069 49.1306C99.223 49.1648 99.1979 49.2044 99.1585 49.2044H95.9816C95.9637 49.2044 95.9458 49.1954 95.9368 49.1792C95.7003 48.758 95.462 48.3314 95.2201 47.8975C94.9746 47.4547 94.7238 47.0245 94.464 46.6087C94.206 46.1928 93.9497 45.7968 93.6953 45.4242C93.4498 45.0606 93.2008 44.7276 92.9535 44.4287C92.9427 44.4161 92.9284 44.4107 92.9141 44.4107H91.538C91.5093 44.4107 91.486 44.4341 91.486 44.4629V49.1558C91.486 49.1846 91.4627 49.208 91.434 49.208H88.5922C88.5636 49.208 88.5403 49.1846 88.5403 49.1558V36.3048C88.5403 36.2796 88.5582 36.258 88.5833 36.2526C89.2122 36.1302 89.8626 36.0438 90.5328 35.9952C91.2172 35.9448 91.8318 35.9196 92.3729 35.9196L92.3747 35.916ZM92.5432 38.438C92.3299 38.438 92.1382 38.4452 91.968 38.4578C91.7978 38.4704 91.6365 38.483 91.4878 38.4956V42.0076C91.4878 42.0364 91.5111 42.0598 91.5397 42.0598H92.3174C93.4247 42.0598 94.2167 41.9212 94.6933 41.644C95.1735 41.3667 95.4118 40.8915 95.4118 40.2219C95.4118 39.5522 95.1699 39.1202 94.6862 38.8484C94.2024 38.5766 93.4856 38.4398 92.5432 38.4398V38.438Z" fill="#00B2E9"/>
<path d="M109.866 46.7163V49.1519C109.866 49.1807 109.843 49.2041 109.814 49.2041H101.181C101.153 49.2041 101.13 49.1807 101.13 49.1519V36.1191C101.13 36.0903 101.153 36.0669 101.181 36.0669H104.021C104.05 36.0669 104.073 36.0903 104.073 36.1191V46.6119C104.073 46.6407 104.097 46.6641 104.125 46.6641H109.814C109.843 46.6641 109.866 46.6875 109.866 46.7163Z" fill="#00B2E9"/>
<path d="M123.83 42.6265C123.83 43.7516 123.663 44.7398 123.328 45.5931C122.995 46.4463 122.538 47.161 121.959 47.7352C121.38 48.3113 120.692 48.7433 119.895 49.0331C119.096 49.3229 118.236 49.4705 117.318 49.4705C116.401 49.4705 115.584 49.3247 114.79 49.0331C113.998 48.7433 113.305 48.3113 112.714 47.7352C112.122 47.161 111.658 46.4463 111.318 45.5931C110.977 44.7398 110.807 43.7516 110.807 42.6265C110.807 41.5014 110.983 40.5132 111.334 39.6581C111.687 38.8049 112.16 38.0884 112.76 37.507C113.357 36.9256 114.048 36.4899 114.835 36.1983C115.622 35.9085 116.448 35.7627 117.315 35.7627C118.182 35.7627 119.053 35.9085 119.843 36.1983C120.635 36.4899 121.327 36.9256 121.918 37.507C122.511 38.0884 122.975 38.8049 123.316 39.6581C123.656 40.5114 123.826 41.5014 123.826 42.6265H123.83ZM113.848 42.6265C113.848 43.271 113.927 43.8524 114.084 44.369C114.242 44.8875 114.468 45.3339 114.763 45.7065C115.061 46.0791 115.421 46.3671 115.849 46.5688C116.277 46.7722 116.767 46.8712 117.32 46.8712C117.874 46.8712 118.351 46.7704 118.784 46.5688C119.218 46.3671 119.583 46.0791 119.877 45.7065C120.175 45.3339 120.4 44.8893 120.556 44.369C120.714 43.8524 120.793 43.271 120.793 42.6265C120.793 41.9821 120.714 41.397 120.556 40.8732C120.399 40.3476 120.173 39.8993 119.877 39.5267C119.583 39.1541 119.218 38.8661 118.784 38.6645C118.351 38.4629 117.861 38.3621 117.32 38.3621C116.779 38.3621 116.276 38.4665 115.849 38.6753C115.421 38.8823 115.061 39.1739 114.763 39.5465C114.469 39.9191 114.242 40.3692 114.084 40.8912C113.927 41.4168 113.848 41.9947 113.848 42.6265Z" fill="#00B2E9"/>
<path d="M129.849 46.9487C130.262 46.9487 130.606 46.9145 130.875 46.8443C131.146 46.7759 131.363 46.6805 131.527 46.5599C131.691 46.4393 131.803 46.2971 131.868 46.1333C131.931 45.9695 131.961 45.7859 131.961 45.5842C131.961 45.154 131.759 44.7976 131.357 44.5132C130.954 44.2288 130.262 43.9227 129.281 43.5951C128.852 43.4439 128.424 43.2693 127.998 43.0731C127.569 42.8787 127.186 42.6303 126.845 42.3332C126.505 42.0362 126.229 41.6762 126.016 41.2532C125.801 40.8302 125.693 40.3153 125.693 39.7087C125.693 39.1021 125.808 38.5548 126.034 38.0688C126.261 37.5828 126.582 37.1687 126.996 36.8267C127.41 36.4847 127.913 36.2237 128.505 36.0401C129.098 35.8565 129.763 35.7646 130.504 35.7646C131.384 35.7646 132.146 35.8601 132.787 36.0491C133.409 36.2327 133.925 36.4343 134.333 36.6539C134.357 36.6665 134.366 36.6935 134.357 36.7187L133.541 38.9526C133.531 38.9814 133.5 38.994 133.472 38.9814C133.12 38.8014 132.732 38.643 132.305 38.5044C131.859 38.3586 131.321 38.2866 130.692 38.2866C129.988 38.2866 129.481 38.3856 129.175 38.58C128.865 38.7762 128.713 39.0769 128.713 39.4801C128.713 39.7213 128.77 39.9229 128.883 40.0867C128.996 40.2505 129.155 40.3999 129.363 40.5331C129.571 40.6663 129.809 40.7852 130.081 40.8932C130.35 41.0012 130.649 41.1128 130.977 41.2262C131.656 41.4782 132.248 41.7284 132.751 41.9732C133.255 42.2198 133.674 42.5079 134.007 42.8355C134.339 43.1649 134.588 43.5501 134.753 43.993C134.916 44.4358 134.998 44.9722 134.998 45.604C134.998 46.8299 134.57 47.7804 133.715 48.4572C132.859 49.1323 131.569 49.4707 129.847 49.4707C129.268 49.4707 128.747 49.4347 128.279 49.3663C127.815 49.2961 127.403 49.2115 127.044 49.1107C126.686 49.0099 126.378 48.9018 126.12 48.7884C125.88 48.6822 125.674 48.5832 125.505 48.4878C125.484 48.4752 125.475 48.45 125.484 48.4248L126.279 46.1711C126.29 46.1423 126.322 46.1279 126.349 46.1423C126.731 46.3475 127.195 46.5293 127.741 46.6931C128.315 46.8641 129.015 46.9487 129.847 46.9487H129.849Z" fill="#00B2E9"/>
<path d="M73.0555 69C73.0358 69 73.0197 68.9892 73.0107 68.973C72.6344 68.226 72.2223 67.4699 71.7761 66.7049C71.3336 65.9471 70.8283 65.3026 70.2567 64.7734C70.2352 64.7536 70.2065 64.7536 70.1868 64.7734C70.0094 64.9732 69.7908 65.2414 69.5274 65.5798C69.2497 65.9399 68.9702 66.3215 68.6907 66.7247C68.4111 67.1279 68.1513 67.5474 67.9076 67.9812C67.6729 68.3988 67.4955 68.73 67.3773 68.9748C67.3683 68.9928 67.3522 69.0018 67.3325 69.0018H63.9836C63.9442 69.0018 63.9191 68.9604 63.937 68.9262C64.496 67.8912 65.1536 66.8219 65.908 65.722C66.6767 64.6024 67.5314 63.4143 68.4738 62.1578C68.4864 62.1398 68.4882 62.1164 68.4756 62.0984L64.1413 55.5154C64.118 55.4812 64.1431 55.4344 64.1843 55.4344H67.7446C67.7625 55.4344 67.7786 55.4434 67.7876 55.4578L70.3033 59.2993C70.323 59.3299 70.3696 59.3299 70.3893 59.2993L72.9605 55.456C72.9695 55.4416 72.9856 55.4326 73.0035 55.4326H76.3488C76.39 55.4326 76.4151 55.4794 76.3918 55.5136L72.0825 61.9508C72.07 61.9688 72.0718 61.994 72.0861 62.012C73.2239 63.4485 74.1628 64.7644 74.9011 65.9615C75.6214 67.1315 76.1947 68.1216 76.6212 68.9298C76.6391 68.964 76.6122 69.0036 76.5746 69.0036H73.0555V69Z" fill="#00B2E9"/>
<path d="M88.216 68.9999C88.1945 68.9999 88.1748 68.9855 88.1676 68.9639C88.0189 68.5031 87.863 68.0314 87.6946 67.5472C87.5261 67.0612 87.3559 66.5769 87.1893 66.0963C87.1821 66.0747 87.1624 66.0621 87.1409 66.0621H81.9375C81.916 66.0621 81.8963 66.0765 81.8891 66.0963C81.7225 66.5805 81.5558 67.0648 81.3892 67.5508C81.2226 68.035 81.0649 68.5067 80.9215 68.9639C80.9144 68.9855 80.8946 68.9999 80.8731 68.9999H77.8253C77.7894 68.9999 77.7644 68.9639 77.7769 68.9297C78.2768 67.495 78.7499 66.1665 79.1996 64.9478C79.6547 63.7058 80.1009 62.5393 80.5381 61.443C80.9735 60.345 81.4035 59.3063 81.8282 58.3198C82.2475 57.3442 82.6847 56.3901 83.1344 55.4595C83.1434 55.4415 83.1613 55.4307 83.181 55.4307H85.9977C86.0174 55.4307 86.0353 55.4415 86.0443 55.4595C86.4815 56.3901 86.9151 57.3442 87.3434 58.3198C87.7734 59.3063 88.2088 60.345 88.646 61.443C89.0832 62.5393 89.5294 63.7076 89.9863 64.9478C90.436 66.1683 90.9108 67.4968 91.4125 68.9297C91.4251 68.9639 91.4 68.9999 91.3642 68.9999H88.2178H88.216ZM84.5248 58.5035C84.4586 58.7015 84.3582 58.9697 84.2274 59.3081C84.0966 59.6483 83.9479 60.0407 83.7812 60.4836C83.6128 60.9282 83.4283 61.4178 83.2204 61.9525C83.0215 62.4655 82.8208 63.0019 82.6166 63.5636C82.604 63.5978 82.6291 63.6356 82.665 63.6356H86.3812C86.417 63.6356 86.4421 63.5996 86.4295 63.5654C86.2306 63.0019 86.0407 62.4637 85.8544 61.9489C85.6608 61.4124 85.4763 60.9228 85.3007 60.4782C85.1269 60.0353 84.9746 59.6429 84.842 59.3027C84.7112 58.9643 84.6055 58.6979 84.5231 58.5071L84.5248 58.5035Z" fill="#00B2E9"/>
<path d="M95.9745 68.9999C95.9548 68.9999 95.9369 68.9891 95.9279 68.9711C95.3957 67.8406 94.8707 66.6688 94.3511 65.4519C93.8279 64.226 93.3316 63.0127 92.8603 61.8139C92.3891 60.6132 91.9573 59.4665 91.5631 58.3684C91.1778 57.2992 90.8445 56.3433 90.5632 55.4973C90.5525 55.4631 90.5776 55.4307 90.6134 55.4307H93.8548C93.8763 55.4307 93.896 55.4451 93.9032 55.4649C94.1522 56.2407 94.4317 57.076 94.7363 57.967C95.0463 58.8725 95.3617 59.7761 95.6824 60.6762C96.0031 61.5744 96.3113 62.4367 96.6052 63.2611C96.8829 64.0388 97.1499 64.7156 97.4043 65.2935C97.4223 65.3349 97.4778 65.3331 97.4957 65.2935C97.7358 64.7192 97.9974 64.0442 98.2823 63.2683C98.5834 62.4439 98.8951 61.5816 99.2159 60.6816C99.5384 59.7833 99.8519 58.8797 100.162 57.9742C100.467 57.0814 100.746 56.2443 100.997 55.4649C101.004 55.4433 101.024 55.4307 101.045 55.4307H104.17C104.206 55.4307 104.231 55.4649 104.22 55.4973C103.923 56.3469 103.584 57.3046 103.199 58.3702C102.805 59.4647 102.375 60.615 101.905 61.8157C101.439 63.0181 100.945 64.2314 100.425 65.4573C99.9111 66.6742 99.3879 67.846 98.8557 68.9711C98.8467 68.9891 98.8288 68.9999 98.8091 68.9999H95.9745Z" fill="#00B2E9"/>
<path d="M106.028 55.4307H108.965C108.994 55.4307 109.017 55.4541 109.017 55.4829V68.9495C109.017 68.9783 108.994 69.0017 108.965 69.0017H106.028C106 69.0017 105.976 68.9783 105.976 68.9495V55.4829C105.976 55.4541 106 55.4307 106.028 55.4307Z" fill="#00B2E9"/>
<path d="M112.137 68.9495V55.4829C112.137 55.4541 112.16 55.4307 112.189 55.4307H121.208C121.237 55.4307 121.26 55.4541 121.26 55.4829V57.9436C121.26 57.9724 121.237 57.9958 121.208 57.9958H115.229C115.201 57.9958 115.177 58.0192 115.177 58.048V60.6078C115.177 60.6366 115.201 60.66 115.229 60.66H120.526C120.554 60.66 120.578 60.6834 120.578 60.7122V63.1153C120.578 63.1441 120.554 63.1675 120.526 63.1675H115.229C115.201 63.1675 115.177 63.1909 115.177 63.2197V66.3861C115.177 66.4149 115.201 66.4383 115.229 66.4383H121.656C121.685 66.4383 121.708 66.4617 121.708 66.4905V68.9513C121.708 68.9801 121.685 69.0035 121.656 69.0035H112.189C112.16 69.0035 112.137 68.9801 112.137 68.9513V68.9495Z" fill="#00B2E9"/>
<path d="M127.904 55.2743C129.931 55.2743 131.484 55.6361 132.561 56.3615C133.642 57.0852 134.181 58.212 134.181 59.7385C134.181 60.6908 133.963 61.4648 133.527 62.0589C133.102 62.6385 132.495 63.0975 131.707 63.4342C131.676 63.4468 131.665 63.4828 131.685 63.508C131.947 63.8356 132.219 64.2082 132.504 64.624C132.803 65.0615 133.099 65.5187 133.391 65.9957C133.683 66.4727 133.966 66.9678 134.238 67.4826C134.498 67.9722 134.74 68.4547 134.964 68.9263C134.98 68.9605 134.955 69.0001 134.916 69.0001H131.63C131.612 69.0001 131.594 68.9911 131.585 68.9749C131.341 68.5393 131.094 68.0982 130.845 67.65C130.59 67.1928 130.331 66.7482 130.064 66.3179C129.797 65.8877 129.531 65.4791 129.27 65.0939C129.015 64.7176 128.759 64.3738 128.503 64.0642C128.492 64.0516 128.478 64.0462 128.463 64.0462H127.039C127.01 64.0462 126.987 64.0696 126.987 64.0984V68.9497C126.987 68.9785 126.964 69.0019 126.935 69.0019H123.997C123.968 69.0019 123.945 68.9785 123.945 68.9497V55.6703C123.945 55.6451 123.962 55.6235 123.988 55.6181C124.638 55.4921 125.31 55.4021 126.002 55.3517C126.709 55.2995 127.344 55.2725 127.903 55.2725L127.904 55.2743ZM128.078 57.879C127.858 57.879 127.661 57.8862 127.485 57.8988C127.31 57.9114 127.143 57.9258 126.989 57.9366V61.5656C126.989 61.5944 127.012 61.6178 127.041 61.6178H127.845C128.988 61.6178 129.807 61.4738 130.3 61.1876C130.795 60.9014 131.042 60.4118 131.042 59.7187C131.042 59.0257 130.791 58.5811 130.293 58.3002C129.793 58.0194 129.053 57.879 128.078 57.879Z" fill="#00B2E9"/>
<defs>
<linearGradient id="paint0_linear_431_440" x1="0" y1="21.5833" x2="76.6266" y2="21.5833" gradientUnits="userSpaceOnUse">
<stop stop-color="#643AFE"/>
<stop offset="1" stop-color="#00FFFF"/>
</linearGradient>
</defs>
</svg>
