<svg width="119" height="61" viewBox="0 0 119 61" fill="none" xmlns="http://www.w3.org/2000/svg">
<g clip-path="url(#clip0_431_362)">
<path d="M67.5449 0H56.3767L36.1313 20.3391L21.471 5.6108C20.5012 4.63652 19.3419 3.96849 18.1131 3.6083C15.4296 2.7086 12.3497 3.3322 10.2111 5.47909L2.31388 13.4129C0.770768 14.9632 0 16.9926 0 19.0237C0 21.0548 0.770768 23.0842 2.31388 24.6345L15.6649 38.049L21.2498 32.4414L7.8988 19.0237L15.7755 11.1089L30.548 25.9499L18.5048 38.049H26.293C28.4568 38.049 30.5322 37.1858 32.0627 35.6482L36.1329 31.5607L37.0079 32.4398C38.5511 33.9885 40.5712 34.7644 42.5929 34.7644C44.6145 34.7644 46.6346 33.9885 48.1778 32.4398L41.7178 25.9499L67.5449 0ZM31.6947 24.7964L16.9237 9.95694L20.209 6.65488C20.2469 6.69138 20.2832 6.72788 20.3211 6.76437L34.9815 21.4927L31.6931 24.7964H31.6947ZM45.7296 32.289C44.7867 32.8381 43.7111 33.1316 42.5913 33.1316C40.9155 33.1316 39.3408 32.4763 38.1546 31.2862L37.2796 30.4056L40.568 27.1035L45.7296 32.289Z" fill="url(#paint0_linear_431_362)"/>
<path d="M60.071 43.6074C58.1978 43.6074 56.7715 43.0822 55.7891 42.0365C54.8083 40.9892 54.3171 39.5024 54.3171 37.5761C54.3171 36.6177 54.4671 35.764 54.7656 35.0103C55.0657 34.2582 55.4748 33.6235 55.9976 33.1062C56.5188 32.5889 57.1395 32.1954 57.8598 31.9272C58.58 31.6606 59.3618 31.5258 60.2052 31.5258C60.6933 31.5258 61.1355 31.5623 61.5351 31.6352C61.9347 31.7066 62.2838 31.7907 62.5823 31.886C62.8824 31.9796 63.1319 32.078 63.3309 32.1779C63.5315 32.2795 63.6753 32.3572 63.7653 32.4128L63.034 34.4692C63.0245 34.4946 62.9977 34.5073 62.9724 34.4946C62.6265 34.3153 62.2285 34.1614 61.7784 34.0328C61.3061 33.8996 60.7723 33.8313 60.1736 33.8313C59.774 33.8313 59.3839 33.898 59.0001 34.0328C58.6163 34.1661 58.2783 34.3803 57.9861 34.6771C57.6908 34.9706 57.4554 35.353 57.2785 35.8211C57.1 36.2876 57.0132 36.8573 57.0132 37.5253C57.0132 38.0601 57.0716 38.5583 57.1869 39.0216C57.3038 39.4834 57.4917 39.8817 57.7524 40.2149C58.013 40.5497 58.3541 40.8147 58.7758 41.0083C59.1975 41.2034 59.7077 41.3002 60.3063 41.3002C60.6838 41.3002 61.0202 41.2796 61.3203 41.2336C61.6204 41.1891 61.8858 41.1352 62.1179 41.0749C62.3501 41.013 62.5554 40.9432 62.7339 40.8654C62.9124 40.7861 63.0719 40.7147 63.2156 40.6481L63.9185 42.7013C63.9264 42.722 63.9185 42.7458 63.8995 42.7569C63.5347 42.9711 63.0309 43.1663 62.3833 43.3392C61.7199 43.5185 60.9476 43.6074 60.071 43.6074Z" fill="#00B2E9"/>
<path d="M73.8248 43.3726C73.8058 43.3726 73.7884 43.3599 73.7821 43.3408C73.6558 42.9489 73.5215 42.5459 73.3778 42.1333C73.234 41.7192 73.0903 41.3066 72.9466 40.8972C72.9403 40.8782 72.9229 40.8671 72.9039 40.8671H68.4673C68.4483 40.8671 68.431 40.8798 68.4246 40.8972C68.2825 41.3098 68.1403 41.7223 67.9966 42.1365C67.8545 42.5506 67.7218 42.9521 67.5986 43.3408C67.5923 43.3599 67.5749 43.3726 67.556 43.3726H64.9593C64.9278 43.3726 64.9056 43.3408 64.9167 43.3107C65.3432 42.0873 65.7459 40.9543 66.1297 39.915C66.5183 38.8566 66.9005 37.8601 67.2717 36.924C67.6444 35.9878 68.0108 35.0992 68.3725 34.2582C68.7311 33.4267 69.1022 32.6127 69.4876 31.8193C69.4955 31.8035 69.5113 31.7939 69.5287 31.7939H71.931C71.9484 31.7939 71.9642 31.8035 71.9721 31.8193C72.3464 32.6127 72.7144 33.4267 73.0793 34.2582C73.4473 35.0992 73.8169 35.9862 74.1912 36.924C74.5639 37.8601 74.9462 38.855 75.3347 39.915C75.7201 40.9559 76.1244 42.0889 76.5509 43.3107C76.5619 43.3408 76.5398 43.3726 76.5082 43.3726H73.8263H73.8248ZM70.6738 34.4169C70.6169 34.5851 70.5316 34.8151 70.4211 35.1023C70.3089 35.3927 70.1826 35.7275 70.0404 36.1052C69.8983 36.4844 69.7387 36.9033 69.5634 37.3587C69.3944 37.7951 69.2223 38.2537 69.0501 38.7313C69.039 38.7614 69.0612 38.7947 69.0928 38.7947H72.2595C72.2911 38.7947 72.3132 38.763 72.3022 38.7329C72.1332 38.2537 71.9705 37.7951 71.8126 37.3556C71.6467 36.8986 71.4888 36.4797 71.3403 36.1004C71.1918 35.7212 71.0607 35.388 70.9486 35.0976C70.8365 34.8088 70.7448 34.5819 70.6754 34.4185L70.6738 34.4169Z" fill="#00B2E9"/>
<path d="M81.4266 31.6591C83.1561 31.6591 84.4813 31.9685 85.4005 32.5873C86.3213 33.2046 86.7825 34.1661 86.7825 35.4689C86.7825 36.2813 86.5961 36.943 86.225 37.4492C85.8617 37.9442 85.3452 38.3346 84.674 38.6218C84.6471 38.6329 84.6376 38.6646 84.655 38.6868C84.8777 38.9661 85.1099 39.2835 85.3515 39.6373C85.6058 40.0118 85.8585 40.4005 86.1081 40.8083C86.3576 41.2145 86.5993 41.6382 86.8315 42.0777C87.0526 42.4951 87.2579 42.9044 87.449 43.3075C87.4633 43.3376 87.4411 43.3725 87.4064 43.3725H84.606C84.5902 43.3725 84.5745 43.3646 84.5666 43.3503C84.3581 42.979 84.148 42.603 83.9348 42.2206C83.7184 41.8302 83.4973 41.451 83.2683 41.0844C83.0408 40.7179 82.8149 40.3688 82.5907 40.0403C82.3743 39.7198 82.1547 39.4263 81.9368 39.1629C81.9273 39.1518 81.9147 39.147 81.902 39.147H80.689C80.6638 39.147 80.6432 39.1676 80.6432 39.193V43.3297C80.6432 43.3551 80.6227 43.3757 80.5974 43.3757H78.0924C78.0671 43.3757 78.0466 43.3551 78.0466 43.3297V32.0018C78.0466 31.9796 78.0624 31.9605 78.0845 31.9558C78.6389 31.8479 79.2122 31.7717 79.803 31.7289C80.4063 31.6844 80.9481 31.6622 81.425 31.6622L81.4266 31.6591ZM81.5751 33.8821C81.3871 33.8821 81.2181 33.8885 81.0681 33.8996C80.918 33.9107 80.7759 33.9218 80.6448 33.9329V37.0287C80.6448 37.0541 80.6653 37.0747 80.6906 37.0747H81.3761C82.3522 37.0747 83.0503 36.9525 83.4704 36.7081C83.8937 36.4638 84.1038 36.0449 84.1038 35.4546C84.1038 34.8643 83.8906 34.4835 83.4641 34.2439C83.0377 34.0043 82.4059 33.8837 81.5751 33.8837V33.8821Z" fill="#00B2E9"/>
<path d="M96.8452 41.1796V43.3265C96.8452 43.3519 96.8246 43.3726 96.7994 43.3726H89.1896C89.1643 43.3726 89.1438 43.3519 89.1438 43.3265V31.8384C89.1438 31.813 89.1643 31.7924 89.1896 31.7924H91.693C91.7183 31.7924 91.7388 31.813 91.7388 31.8384V41.0876C91.7388 41.113 91.7594 41.1336 91.7846 41.1336H96.7994C96.8246 41.1336 96.8452 41.1543 96.8452 41.1796Z" fill="#00B2E9"/>
<path d="M109.154 37.5746C109.154 38.5663 109.007 39.4374 108.711 40.1895C108.418 40.9417 108.015 41.5716 107.505 42.0778C106.995 42.5856 106.388 42.9664 105.685 43.2219C104.981 43.4773 104.223 43.6074 103.414 43.6074C102.605 43.6074 101.885 43.4789 101.185 43.2219C100.487 42.9664 99.8761 42.5856 99.3549 42.0778C98.8337 41.5716 98.4246 40.9417 98.1245 40.1895C97.8244 39.4374 97.6743 38.5663 97.6743 37.5746C97.6743 36.5828 97.8291 35.7117 98.1387 34.958C98.4499 34.2059 98.8668 33.5743 99.3959 33.0618C99.9219 32.5493 100.532 32.1653 101.225 31.9082C101.918 31.6528 102.646 31.5242 103.411 31.5242C104.175 31.5242 104.943 31.6528 105.639 31.9082C106.338 32.1653 106.947 32.5493 107.468 33.0618C107.991 33.5743 108.4 34.2059 108.7 34.958C109.001 35.7101 109.151 36.5828 109.151 37.5746H109.154ZM100.355 37.5746C100.355 38.1426 100.424 38.6551 100.563 39.1105C100.702 39.5675 100.901 39.9611 101.162 40.2895C101.424 40.618 101.741 40.8719 102.119 41.0496C102.496 41.2289 102.928 41.3161 103.416 41.3161C103.904 41.3161 104.324 41.2273 104.706 41.0496C105.088 40.8719 105.41 40.618 105.669 40.2895C105.932 39.9611 106.131 39.5691 106.268 39.1105C106.407 38.6551 106.477 38.1426 106.477 37.5746C106.477 37.0065 106.407 36.4908 106.268 36.0291C106.129 35.5657 105.93 35.1706 105.669 34.8422C105.41 34.5137 105.088 34.2598 104.706 34.0821C104.324 33.9044 103.893 33.8155 103.416 33.8155C102.939 33.8155 102.495 33.9076 102.119 34.0916C101.741 34.2741 101.424 34.5311 101.162 34.8596C100.903 35.1881 100.702 35.5848 100.563 36.0449C100.424 36.5083 100.355 37.0176 100.355 37.5746Z" fill="#00B2E9"/>
<path d="M114.459 41.3843C114.824 41.3843 115.127 41.3542 115.364 41.2923C115.603 41.232 115.794 41.1479 115.939 41.0416C116.083 40.9353 116.182 40.8099 116.239 40.6655C116.294 40.5211 116.321 40.3593 116.321 40.1816C116.321 39.8023 116.143 39.4881 115.789 39.2374C115.434 38.9867 114.824 38.717 113.958 38.4282C113.581 38.2949 113.203 38.141 112.828 37.968C112.45 37.7966 112.112 37.5777 111.812 37.3159C111.512 37.054 111.269 36.7367 111.081 36.3638C110.891 35.9909 110.796 35.5371 110.796 35.0024C110.796 34.4676 110.897 33.9852 111.096 33.5568C111.297 33.1284 111.58 32.7634 111.945 32.4619C112.309 32.1605 112.753 31.9304 113.275 31.7685C113.797 31.6067 114.383 31.5258 115.037 31.5258C115.813 31.5258 116.484 31.6099 117.049 31.7765C117.597 31.9383 118.052 32.116 118.412 32.3096C118.433 32.3207 118.441 32.3445 118.433 32.3667L117.714 34.3359C117.705 34.3613 117.678 34.3724 117.653 34.3613C117.343 34.2026 117 34.063 116.625 33.9408C116.231 33.8123 115.757 33.7488 115.203 33.7488C114.582 33.7488 114.135 33.8361 113.865 34.0075C113.592 34.1804 113.458 34.4454 113.458 34.8008C113.458 35.0135 113.508 35.1912 113.608 35.3356C113.707 35.48 113.848 35.6117 114.031 35.7291C114.214 35.8465 114.424 35.9512 114.664 36.0464C114.901 36.1417 115.165 36.24 115.454 36.34C116.053 36.5621 116.574 36.7827 117.018 36.9985C117.462 37.2159 117.831 37.4698 118.125 37.7586C118.417 38.0489 118.637 38.3885 118.782 38.7789C118.926 39.1692 118.998 39.6421 118.998 40.199C118.998 41.2796 118.621 42.1174 117.868 42.714C117.113 43.3091 115.975 43.6074 114.458 43.6074C113.947 43.6074 113.488 43.5756 113.076 43.5153C112.666 43.4535 112.303 43.3789 111.987 43.29C111.671 43.2012 111.4 43.106 111.172 43.006C110.961 42.9124 110.779 42.8251 110.631 42.741C110.612 42.7299 110.604 42.7077 110.612 42.6855L111.313 40.6988C111.322 40.6734 111.351 40.6608 111.374 40.6734C111.711 40.8543 112.12 41.0146 112.602 41.159C113.107 41.3097 113.725 41.3843 114.458 41.3843H114.459Z" fill="#00B2E9"/>
<path d="M64.3971 60.8222C64.3797 60.8222 64.3655 60.8127 64.3576 60.7984C64.0259 60.1399 63.6626 59.4735 63.2693 58.7991C62.8792 58.1311 62.4338 57.563 61.93 57.0965C61.911 57.0791 61.8857 57.0791 61.8684 57.0965C61.712 57.2726 61.5193 57.5091 61.2871 57.8074C61.0423 58.1247 60.7959 58.4611 60.5495 58.8166C60.3031 59.172 60.0741 59.5417 59.8593 59.9241C59.6524 60.2922 59.496 60.5842 59.3918 60.8C59.3839 60.8159 59.3697 60.8238 59.3523 60.8238H56.4003C56.3656 60.8238 56.3435 60.7873 56.3593 60.7572C56.8521 59.8448 57.4317 58.9022 58.0967 57.9327C58.7742 56.9458 59.5276 55.8985 60.3584 54.7909C60.3695 54.7751 60.3711 54.7544 60.36 54.7386L56.5393 48.9358C56.5188 48.9056 56.5409 48.8644 56.5772 48.8644H59.7156C59.7314 48.8644 59.7456 48.8723 59.7535 48.885L61.971 52.2712C61.9884 52.2981 62.0295 52.2981 62.0468 52.2712L64.3134 48.8834C64.3212 48.8707 64.3355 48.8628 64.3513 48.8628H67.3001C67.3364 48.8628 67.3585 48.9041 67.338 48.9342L63.5394 54.6085C63.5284 54.6243 63.5299 54.6465 63.5426 54.6624C64.5455 55.9286 65.3732 57.0886 66.0239 58.1438C66.6588 59.1752 67.1642 60.0479 67.5402 60.7603C67.5559 60.7905 67.5323 60.8254 67.4991 60.8254H64.3971V60.8222Z" fill="#00B2E9"/>
<path d="M77.7607 60.8222C77.7418 60.8222 77.7244 60.8095 77.7181 60.7904C77.587 60.3842 77.4496 59.9685 77.3011 59.5416C77.1527 59.1132 77.0026 58.6864 76.8557 58.2627C76.8494 58.2437 76.832 58.2326 76.8131 58.2326H72.2264C72.2074 58.2326 72.19 58.2453 72.1837 58.2627C72.0368 58.6896 71.8899 59.1164 71.7431 59.5448C71.5962 59.9717 71.4572 60.3874 71.3308 60.7904C71.3245 60.8095 71.3071 60.8222 71.2882 60.8222H68.6015C68.57 60.8222 68.5478 60.7904 68.5589 60.7603C68.9996 59.4956 69.4165 58.3246 69.813 57.2504C70.2142 56.1555 70.6074 55.1273 70.9928 54.1609C71.3766 53.193 71.7557 52.2774 72.13 51.4079C72.4996 50.5479 72.885 49.7069 73.2814 48.8865C73.2893 48.8707 73.3051 48.8611 73.3225 48.8611H75.8054C75.8228 48.8611 75.8386 48.8707 75.8464 48.8865C76.2318 49.7069 76.6141 50.5479 76.9915 51.4079C77.3706 52.2774 77.7544 53.193 78.1398 54.1609C78.5252 55.1273 78.9185 56.1571 79.3212 57.2504C79.7177 58.3262 80.1362 59.4972 80.5785 60.7603C80.5895 60.7904 80.5674 60.8222 80.5358 60.8222H77.7623H77.7607ZM74.5071 51.5698C74.4486 51.7443 74.3602 51.9807 74.2449 52.279C74.1296 52.5789 73.9985 52.9248 73.8516 53.3152C73.7031 53.7071 73.5405 54.1387 73.3572 54.61C73.1819 55.0622 73.005 55.5351 72.825 56.0301C72.8139 56.0603 72.836 56.0936 72.8676 56.0936H76.1434C76.175 56.0936 76.1971 56.0619 76.186 56.0317C76.0107 55.5351 75.8433 55.0606 75.679 54.6068C75.5084 54.134 75.3458 53.7024 75.191 53.3104C75.0378 52.9201 74.9035 52.5742 74.7866 52.2743C74.6713 51.976 74.5782 51.7411 74.5055 51.5729L74.5071 51.5698Z" fill="#00B2E9"/>
<path d="M84.5997 60.8222C84.5824 60.8222 84.5666 60.8126 84.5587 60.7968C84.0896 59.8003 83.6268 58.7673 83.1688 57.6947C82.7076 56.6141 82.27 55.5446 81.8547 54.4878C81.4393 53.4294 81.0586 52.4187 80.7111 51.4507C80.3716 50.5082 80.0778 49.6656 79.8298 48.9199C79.8203 48.8897 79.8424 48.8611 79.874 48.8611H82.7312C82.7502 48.8611 82.7676 48.8738 82.7739 48.8913C82.9934 49.5752 83.2398 50.3114 83.5083 51.0969C83.7816 51.895 84.0596 52.6916 84.3423 53.485C84.625 54.2768 84.8967 55.0368 85.1557 55.7636C85.4005 56.449 85.6358 57.0457 85.8601 57.555C85.8759 57.5915 85.9249 57.5899 85.9407 57.555C86.1523 57.0488 86.3829 56.4538 86.634 55.7699C86.8994 55.0432 87.1742 54.2831 87.4569 53.4897C87.7412 52.6979 88.0176 51.9014 88.2909 51.1032C88.5594 50.3162 88.8058 49.5784 89.0269 48.8913C89.0332 48.8723 89.0506 48.8611 89.0695 48.8611H91.8241C91.8557 48.8611 91.8778 48.8913 91.8683 48.9199C91.6061 49.6688 91.3076 50.513 90.968 51.4523C90.6206 52.4171 90.2415 53.431 89.8277 54.4894C89.417 55.5494 88.9811 56.6188 88.5231 57.6994C88.0698 58.7721 87.6086 59.8051 87.1395 60.7968C87.1316 60.8126 87.1158 60.8222 87.0984 60.8222H84.5997Z" fill="#00B2E9"/>
<path d="M93.462 48.8611H96.0507C96.076 48.8611 96.0965 48.8818 96.0965 48.9072V60.7777C96.0965 60.8031 96.076 60.8238 96.0507 60.8238H93.462C93.4367 60.8238 93.4162 60.8031 93.4162 60.7777V48.9072C93.4162 48.8818 93.4367 48.8611 93.462 48.8611Z" fill="#00B2E9"/>
<path d="M98.8463 60.7777V48.9072C98.8463 48.8818 98.8668 48.8611 98.8921 48.8611H106.843C106.868 48.8611 106.889 48.8818 106.889 48.9072V51.0763C106.889 51.1017 106.868 51.1223 106.843 51.1223H101.572C101.547 51.1223 101.527 51.1429 101.527 51.1683V53.4247C101.527 53.4501 101.547 53.4707 101.572 53.4707H106.241C106.267 53.4707 106.287 53.4913 106.287 53.5167V55.635C106.287 55.6604 106.267 55.6811 106.241 55.6811H101.572C101.547 55.6811 101.527 55.7017 101.527 55.7271V58.5182C101.527 58.5436 101.547 58.5642 101.572 58.5642H107.238C107.263 58.5642 107.284 58.5848 107.284 58.6102V60.7793C107.284 60.8047 107.263 60.8253 107.238 60.8253H98.8921C98.8668 60.8253 98.8463 60.8047 98.8463 60.7793V60.7777Z" fill="#00B2E9"/>
<path d="M112.745 48.7231C114.532 48.7231 115.901 49.0421 116.85 49.6816C117.803 50.3194 118.278 51.3127 118.278 52.6583C118.278 53.4977 118.085 54.18 117.702 54.7037C117.327 55.2146 116.792 55.6192 116.097 55.9159C116.07 55.9271 116.061 55.9588 116.078 55.981C116.309 56.2698 116.549 56.5983 116.8 56.9648C117.064 57.3504 117.324 57.7534 117.582 58.1739C117.839 58.5944 118.089 59.0308 118.329 59.4846C118.558 59.9162 118.771 60.3414 118.968 60.7572C118.983 60.7873 118.961 60.8222 118.926 60.8222H116.029C116.013 60.8222 115.997 60.8143 115.99 60.8C115.775 60.416 115.557 60.0272 115.337 59.6321C115.113 59.2291 114.884 58.8372 114.649 58.4579C114.413 58.0787 114.18 57.7185 113.949 57.3789C113.725 57.0473 113.499 56.7442 113.273 56.4713C113.263 56.4602 113.251 56.4554 113.238 56.4554H111.983C111.957 56.4554 111.937 56.4761 111.937 56.5015V60.7778C111.937 60.8032 111.916 60.8238 111.891 60.8238H109.301C109.275 60.8238 109.255 60.8032 109.255 60.7778V49.0722C109.255 49.05 109.271 49.031 109.293 49.0262C109.866 48.9151 110.458 48.8358 111.068 48.7914C111.692 48.7454 112.251 48.7216 112.744 48.7216L112.745 48.7231ZM112.899 51.0192C112.704 51.0192 112.531 51.0255 112.376 51.0366C112.221 51.0478 112.074 51.0604 111.938 51.07V54.2689C111.938 54.2943 111.959 54.3149 111.984 54.3149H112.693C113.701 54.3149 114.423 54.188 114.857 53.9357C115.293 53.6834 115.511 53.2518 115.511 52.6409C115.511 52.03 115.29 51.638 114.851 51.3905C114.41 51.143 113.758 51.0192 112.899 51.0192Z" fill="#00B2E9"/>
</g>
<defs>
<linearGradient id="paint0_linear_431_362" x1="0" y1="19.0253" x2="67.5449" y2="19.0253" gradientUnits="userSpaceOnUse">
<stop stop-color="#643AFE"/>
<stop offset="1" stop-color="#00FFFF"/>
</linearGradient>
<clipPath id="clip0_431_362">
<rect width="119" height="60.8222" fill="white"/>
</clipPath>
</defs>
</svg>
