<svg width="58" height="58" viewBox="0 0 58 58" fill="none" xmlns="http://www.w3.org/2000/svg">
<path d="M58 13.195C57.9674 11.9439 57.8706 10.6952 57.71 9.454C57.4935 8.36686 57.1326 7.31354 56.637 6.322C56.1187 5.2464 55.4226 4.26598 54.578 3.422C53.7257 2.58739 52.747 1.89251 51.678 1.363C50.6851 0.877089 49.6318 0.525983 48.546 0.319C47.3166 0.134848 46.0768 0.0283043 44.834 0H13.195C11.9439 0.0325856 10.6952 0.129379 9.454 0.29C8.36686 0.506538 7.31354 0.8674 6.322 1.363C5.2464 1.88134 4.26598 2.57744 3.422 3.422C2.58739 4.27434 1.89251 5.25304 1.363 6.322C0.877089 7.31485 0.525983 8.36817 0.319 9.454C0.134848 10.6834 0.0283043 11.9232 0 13.166C0 13.717 0 14.5 0 14.732V43.268C0 43.587 0 44.283 0 44.805C0.0325856 46.0561 0.129379 47.3048 0.29 48.546C0.506538 49.6331 0.8674 50.6865 1.363 51.678C1.88134 52.7536 2.57744 53.734 3.422 54.578C4.27434 55.4126 5.25304 56.1075 6.322 56.637C7.31485 57.1229 8.36817 57.474 9.454 57.681C10.6834 57.8652 11.9232 57.9717 13.166 58H44.805C46.0561 57.9674 47.3048 57.8706 48.546 57.71C49.6331 57.4935 50.6865 57.1326 51.678 56.637C52.7536 56.1187 53.734 55.4226 54.578 54.578C55.4126 53.7257 56.1075 52.747 56.637 51.678C57.1229 50.6851 57.474 49.6318 57.681 48.546C57.8652 47.3166 57.9717 46.0768 58 44.834C58 44.283 58 43.587 58 43.268V14.732C58 14.5 58 13.717 58 13.195ZM29.667 49.3C26.1843 49.2828 22.7625 48.385 19.72 46.69L8.7 49.59L11.6 38.802C9.72983 35.6597 8.72896 32.0766 8.7 28.42C8.71155 24.3105 9.93889 20.2963 12.2274 16.883C14.516 13.4696 17.7634 10.8098 21.5607 9.23858C25.358 7.66731 29.5353 7.25485 33.5666 8.05312C37.5978 8.8514 41.3027 10.8247 44.2147 13.7246C47.1266 16.6244 49.1153 20.321 49.9303 24.3489C50.7453 28.3768 50.3502 32.5559 48.7948 36.3596C47.2393 40.1634 44.5931 43.4219 41.1893 45.7246C37.7855 48.0273 33.7764 49.2714 29.667 49.3ZM29.667 11.223C26.5924 11.2582 23.5821 12.1075 20.9425 13.6843C18.3029 15.2612 16.1283 17.5094 14.6401 20.2C13.1518 22.8906 12.4032 25.9275 12.4702 29.0015C12.5373 32.0756 13.4178 35.0769 15.022 37.7L15.428 38.367L13.688 44.718L20.3 42.92L20.938 43.297C23.5758 44.8507 26.5768 45.681 29.638 45.704C34.2528 45.704 38.6785 43.8708 41.9417 40.6077C45.2048 37.3445 47.038 32.9188 47.038 28.304C47.038 23.6892 45.2048 19.2635 41.9417 16.0003C38.6785 12.7372 34.2528 10.904 29.638 10.904L29.667 11.223ZM39.817 35.931C39.4372 36.5646 38.9286 37.1113 38.3241 37.5359C37.7197 37.9605 37.0328 38.2536 36.308 38.396C35.225 38.594 34.11 38.5243 33.06 38.193C32.0721 37.8841 31.1037 37.5162 30.16 37.091C26.5749 35.292 23.5174 32.5943 21.286 29.261C20.0735 27.7167 19.3377 25.8522 19.169 23.896C19.1517 23.0834 19.3055 22.2762 19.6202 21.5268C19.9349 20.7774 20.4037 20.1026 20.996 19.546C21.1705 19.3482 21.3845 19.1892 21.6243 19.0793C21.8641 18.9694 22.1243 18.911 22.388 18.908H23.2C23.519 18.908 23.954 18.908 24.36 19.807C24.766 20.706 25.839 23.403 25.984 23.664C26.0553 23.8031 26.0924 23.9572 26.0924 24.1135C26.0924 24.2698 26.0553 24.4239 25.984 24.563C25.8558 24.8781 25.6797 25.1716 25.462 25.433C25.201 25.752 24.911 26.129 24.679 26.361C24.447 26.593 24.157 26.883 24.447 27.405C25.2361 28.7367 26.2127 29.9477 27.347 31.001C28.5822 32.0924 29.9944 32.9653 31.523 33.582C32.045 33.843 32.364 33.814 32.654 33.582C32.944 33.35 33.959 32.074 34.307 31.552C34.655 31.03 35.003 31.117 35.467 31.291C35.931 31.465 38.512 32.712 39.034 32.973C39.556 33.234 39.875 33.35 40.02 33.582C40.1458 34.341 40.0759 35.1195 39.817 35.844V35.931Z" fill="white"/>
</svg>
