<svg width="68" height="68" viewBox="0 0 68 68" fill="none" xmlns="http://www.w3.org/2000/svg">
<circle cx="34" cy="34" r="34" transform="rotate(90 34 34)" fill="#03BF65"/>
<path d="M42.6703 37.0175C42.3186 36.8427 40.0329 35.794 39.6813 35.6192C39.3296 35.4444 38.978 35.4444 38.6263 35.794C38.2747 36.1436 37.5714 37.1923 37.2197 37.5418C37.0439 37.8914 36.6923 37.8914 36.3406 37.7166C35.1099 37.1923 33.8791 36.4931 32.8241 35.6192C31.945 34.7453 31.0659 33.6966 30.3626 32.6479C30.1868 32.2984 30.3626 31.9488 30.5384 31.774C30.7143 31.5993 30.8901 31.2497 31.2417 31.0749C31.4176 30.9001 31.5934 30.5506 31.5934 30.3758C31.7692 30.201 31.7692 29.8514 31.5934 29.6767C31.4176 29.5019 30.5384 27.4045 30.1868 26.5306C30.011 25.3071 29.6593 25.3071 29.3077 25.3071H28.4286C28.0769 25.3071 27.5494 25.6567 27.3736 25.8315C26.3187 26.8801 25.7912 28.1036 25.7912 29.5019C25.967 31.0749 26.4945 32.6479 27.5494 34.0462C29.4835 36.8427 31.945 39.1149 34.934 40.5131C35.8132 40.8627 36.5164 41.2122 37.3956 41.387C38.2747 41.7366 39.1538 41.7366 40.2087 41.5618C41.4395 41.387 42.4945 40.5131 43.1978 39.4644C43.5494 38.7653 43.5494 38.0662 43.3736 37.367L42.6703 37.0175ZM47.0659 21.1124C40.2087 14.2959 29.1318 14.2959 22.2747 21.1124C16.6484 26.7054 15.5934 35.2697 19.4615 42.0861L17 51L26.3187 48.5531C28.956 49.9513 31.7692 50.6504 34.5824 50.6504C44.2527 50.6504 51.9889 42.96 51.9889 33.3471C52.1648 28.8027 50.2307 24.4332 47.0659 21.1124ZM42.3186 45.5818C40.0329 46.98 37.3956 47.8539 34.5824 47.8539C31.945 47.8539 29.4835 47.1548 27.1978 45.9313L26.6703 45.5818L21.2198 46.98L22.6264 41.7366L22.2747 41.2122C18.0549 34.221 20.1648 25.4819 27.022 21.1124C33.8791 16.7428 42.6703 19.015 46.8901 25.6567C51.1098 32.4732 49.1758 41.387 42.3186 45.5818Z" fill="white"/>
</svg>
