<?xml version="1.0" standalone="no"?>
<!DOCTYPE svg PUBLIC "-//W3C//DTD SVG 20010904//EN"
 "http://www.w3.org/TR/2001/REC-SVG-20010904/DTD/svg10.dtd">
<svg version="1.0" xmlns="http://www.w3.org/2000/svg"
 width="1783.000000pt" height="1783.000000pt" viewBox="0 0 1783.000000 1783.000000"
 preserveAspectRatio="xMidYMid meet">
<metadata>
Created by potrace 1.14, written by Peter Selinger 2001-2017
</metadata>
<g transform="translate(0.000000,1783.000000) scale(0.100000,-0.100000)"
fill="#000000" stroke="none">
<path d="M12208 11246 l-2669 -2669 -26 24 c-14 13 -894 893 -1957 1955 -1062
1061 -1969 1963 -2016 2003 -302 260 -708 435 -1150 496 -142 20 -455 13 -600
-13 -233 -42 -458 -123 -654 -235 -146 -83 -196 -118 -325 -228 -116 -98
-2270 -2259 -2345 -2354 -187 -232 -320 -495 -395 -785 -17 -63 -33 -137 -36
-165 -4 -27 -8 -57 -10 -65 -11 -41 -18 -149 -19 -280 -3 -275 45 -530 144
-781 88 -220 193 -394 350 -580 43 -52 879 -894 1857 -1872 l1779 -1778 738
736 c405 406 736 739 734 741 -2 1 -792 792 -1756 1758 -963 965 -1752 1758
-1752 1763 0 4 465 473 1033 1041 l1033 1033 1947 -1946 1947 -1947 -1585
-1585 c-872 -872 -1585 -1587 -1585 -1589 0 -8 2282 2 2320 10 19 3 83 16 142
27 241 44 489 140 714 276 191 116 265 183 872 787 326 325 594 592 596 594 2
1 72 -67 157 -151 85 -84 188 -179 229 -212 41 -33 77 -62 80 -65 7 -7 133
-89 195 -127 165 -101 410 -194 630 -238 156 -32 198 -36 390 -39 141 -3 195
1 385 28 30 4 83 15 150 31 62 15 171 48 197 60 17 8 34 15 38 15 25 0 282
127 360 179 97 63 213 149 255 187 19 18 47 42 63 54 66 52 127 -18 -797 907
-465 465 -846 848 -846 852 0 3 1530 1536 3400 3406 1870 1870 3400 3402 3400
3405 0 3 -662 5 -1472 5 l-1471 0 -2669 -2669z m-4913 -1043 l1935 -1935 -429
-429 c-236 -236 -433 -429 -437 -429 -8 0 -3884 3880 -3884 3889 0 3 192 198
427 433 327 327 430 425 440 416 7 -5 884 -881 1948 -1945z m4107 -4107 c362
-363 655 -663 651 -667 -19 -18 -177 -90 -269 -122 -174 -61 -329 -88 -525
-92 -88 -1 -136 2 -284 20 -114 14 -281 65 -413 126 -46 22 -85 39 -87 39 -11
0 -182 111 -243 157 -63 48 -308 283 -366 351 l-20 23 429 429 c414 414 430
429 448 412 11 -9 316 -314 679 -676z"/>
</g>
</svg>
